<?xml version="1.0" encoding="utf-8"?>
<!-- Svg Vector Icons : http://www.onlinewebfonts.com/icon -->
<!DOCTYPE svg PUBLIC "-//W3C//DTD SVG 1.1//EN" "http://www.w3.org/Graphics/SVG/1.1/DTD/svg11.dtd">
<svg version="1.1" xmlns="http://www.w3.org/2000/svg" xmlns:xlink="http://www.w3.org/1999/xlink" x="0px" y="0px" viewBox="0 0 1000 1000" enable-background="new 0 0 1000 1000" xml:space="preserve">
<metadata> Svg Vector Icons : http://www.onlinewebfonts.com/icon </metadata>
<g><path d="M714.4,592.3H438.7c-16.9,0-30.6,13.7-30.6,30.6c0,16.9,13.7,30.6,30.6,30.6h275.6c16.9,0,30.6-13.7,30.6-30.6C745,606,731.3,592.3,714.4,592.3z"/><path d="M714.4,10c-3.8,0-367.5,0-367.5,0c-64.8,0-122.5,59.5-122.5,122.5l-35.4,0.8C124.2,133.3,71.3,192,71.3,255v612.5c0,63,57.7,122.5,122.5,122.5h459.4c64.8,0,122.5-59.5,122.5-122.5h30.6c64.8,0,122.5-59.5,122.5-122.5V316.3v-60.5L714.4,10z M653.1,928.8H193.7c-32.1,0-61.2-30-61.2-61.2V255c0-31.2,26.2-60.3,58.3-60.3l33.5-1V745c0,63.1,57.7,122.5,122.5,122.5h367.5C714.4,898.7,685.3,928.8,653.1,928.8z M867.5,745c0,31.2-29.1,61.3-61.2,61.3H346.9c-32.1,0-61.2-30.1-61.2-61.3V132.5c0-31.2,29.1-61.2,61.2-61.2h306.2c-0.5,70.5,0,123.3,0,123.3c0,63.6,57.3,121.7,122.5,121.7c0,0,32.5,0,91.9,0L867.5,745L867.5,745z M775.6,255c-32.6,0-61.2-59.3-61.2-91.1c0,0,0-32.2,0-91.7v0L867.5,255H775.6z"/><path d="M714.4,439.3H438.7c-16.9,0-30.6,13.7-30.6,30.6c0,16.9,13.7,30.6,30.6,30.6h275.6c16.9,0,30.6-13.7,30.6-30.6C745,453,731.3,439.3,714.4,439.3z"/></g>
</svg>