<?xml version="1.0" encoding="UTF-8" standalone="no"?>
<svg
   xmlns:dc="http://purl.org/dc/elements/1.1/"
   xmlns:cc="http://creativecommons.org/ns#"
   xmlns:rdf="http://www.w3.org/1999/02/22-rdf-syntax-ns#"
   xmlns:svg="http://www.w3.org/2000/svg"
   xmlns="http://www.w3.org/2000/svg"
   xmlns:xlink="http://www.w3.org/1999/xlink"
   version="1.1"
   id="Layer_1"
   x="0px"
   y="0px"
   width="327.91525"
   height="21.360945"
   viewBox="0 0 327.91525 21.360945"
   enable-background="new 0 0 1920 1080"
   xml:space="preserve"><metadata
     id="metadata289"><rdf:RDF><cc:Work
         rdf:about=""><dc:format>image/svg+xml</dc:format><dc:type
           rdf:resource="http://purl.org/dc/dcmitype/StillImage" /><dc:title></dc:title></cc:Work></rdf:RDF></metadata><defs
     id="defs287"><defs
       id="defs3"><rect
         y="0"
         x="0"
         height="1080"
         width="1920"
         id="SVGID_1_" /></defs><clipPath
       id="SVGID_2_"><use
         height="100%"
         width="100%"
         y="0"
         x="0"
         style="overflow:visible"
         id="use5"
         overflow="visible"
         xlink:href="#SVGID_1_" /></clipPath><defs
       id="defs21"><rect
         height="301.19199"
         width="367.711"
         y="477"
         x="249.289"
         id="SVGID_3_" /></defs><clipPath
       id="SVGID_4_"><use
         height="100%"
         width="100%"
         y="0"
         x="0"
         style="overflow:visible"
         id="use23"
         overflow="visible"
         xlink:href="#SVGID_3_" /></clipPath><defs
       id="defs87"><rect
         id="SVGID_17_"
         x="464.01901"
         y="663.39099"
         width="152.599"
         height="114.45" /></defs><clipPath
       id="SVGID_18_"><use
         xlink:href="#SVGID_17_"
         overflow="visible"
         id="use89"
         style="overflow:visible"
         x="0"
         y="0"
         width="100%"
         height="100%" /></clipPath><defs
       id="defs67"><rect
         id="SVGID_13_"
         x="249.289"
         y="657.927"
         width="151.88901"
         height="117.734" /></defs><clipPath
       id="SVGID_14_"><use
         xlink:href="#SVGID_13_"
         overflow="visible"
         id="use69"
         style="overflow:visible"
         x="0"
         y="0"
         width="100%"
         height="100%" /></clipPath><defs
       id="defs47"><rect
         id="SVGID_9_"
         x="458.57001"
         y="477.00101"
         width="158.429"
         height="123.17" /></defs><clipPath
       id="SVGID_10_"><use
         xlink:href="#SVGID_9_"
         overflow="visible"
         id="use49"
         style="overflow:visible"
         x="0"
         y="0"
         width="100%"
         height="100%" /></clipPath><defs
       id="defs27"><rect
         id="SVGID_5_"
         x="254.74001"
         y="483.54001"
         width="141.345"
         height="106.085" /></defs><clipPath
       id="SVGID_6_"><use
         xlink:href="#SVGID_5_"
         overflow="visible"
         id="use29"
         style="overflow:visible"
         x="0"
         y="0"
         width="100%"
         height="100%" /></clipPath><defs
       id="defs33"><rect
         height="106.085"
         width="141.34599"
         y="483.54001"
         x="254.739"
         id="SVGID_7_" /></defs><clipPath
       id="SVGID_8_"><use
         height="100%"
         width="100%"
         y="0"
         x="0"
         style="overflow:visible"
         id="use35"
         overflow="visible"
         xlink:href="#SVGID_7_" /></clipPath><defs
       id="defs53"><rect
         height="123.528"
         width="158.42999"
         y="477"
         x="458.569"
         id="SVGID_11_" /></defs><clipPath
       id="SVGID_12_"><use
         height="100%"
         width="100%"
         y="0"
         x="0"
         style="overflow:visible"
         id="use55"
         overflow="visible"
         xlink:href="#SVGID_11_" /></clipPath><defs
       id="defs73"><rect
         height="118.074"
         width="151.89"
         y="657.92603"
         x="249.289"
         id="SVGID_15_" /></defs><clipPath
       id="SVGID_16_"><use
         height="100%"
         width="100%"
         y="0"
         x="0"
         style="overflow:visible"
         id="use75"
         overflow="visible"
         xlink:href="#SVGID_15_" /></clipPath><defs
       id="defs93"><rect
         height="114.803"
         width="152.60001"
         y="663.39001"
         x="464.01901"
         id="SVGID_19_" /></defs><clipPath
       id="SVGID_20_"><use
         height="100%"
         width="100%"
         y="0"
         x="0"
         style="overflow:visible"
         id="use95"
         overflow="visible"
         xlink:href="#SVGID_19_" /></clipPath></defs><path
     id="path110"
     d="m 390.124,962.585 c -0.657,-0.842 -1.877,-0.992 -2.719,-0.335 -0.842,0.657 -0.992,1.877 -0.334,2.718 0.657,0.844 1.877,0.993 2.718,0.337 0.842,-0.658 0.992,-1.878 0.335,-2.72 m -0.645,2.321 c -0.623,0.486 -1.525,0.375 -2.011,-0.247 -0.486,-0.623 -0.375,-1.525 0.248,-2.012 0.622,-0.485 1.524,-0.375 2.01,0.248 0.487,0.624 0.376,1.525 -0.247,2.011"
     clip-path="url(#SVGID_2_)"
     transform="translate(-363.17468,-951.48904)" /><path
     id="path112"
     d="m 397.377,956.881 c -0.657,-0.842 -1.877,-0.992 -2.719,-0.335 -0.842,0.657 -0.992,1.877 -0.335,2.718 0.658,0.844 1.878,0.993 2.719,0.335 0.842,-0.656 0.992,-1.876 0.335,-2.718 m -0.645,2.321 c -0.623,0.485 -1.525,0.375 -2.011,-0.247 -0.486,-0.623 -0.375,-1.525 0.248,-2.012 0.622,-0.486 1.524,-0.375 2.01,0.248 0.487,0.622 0.376,1.525 -0.247,2.011"
     clip-path="url(#SVGID_2_)"
     transform="translate(-363.17468,-951.48904)" /><path
     id="path114"
     d="m 384.054,964.079 0.338,0.433 2.428,3.108 0.338,0.434 0.842,1.079 1.079,-0.844 0.432,-0.337 3.11,-2.426 0.432,-0.339 3.11,-2.428 0.432,-0.337 3.109,-2.429 0.432,-0.338 1.092,-0.852 -0.843,-1.079 -0.337,-0.433 -2.428,-3.109 -0.338,-0.432 -0.843,-1.079 L 383.212,963 Z m -0.468,-1.022 6.093,-4.769 1.055,1.351 c -0.65,0.684 -0.72,1.762 -0.122,2.525 0.598,0.767 1.661,0.959 2.481,0.494 l 1.05,1.344 -6.097,4.764 z m 7.671,-3.213 c 0.623,-0.486 1.525,-0.376 2.011,0.247 0.486,0.623 0.375,1.524 -0.247,2.011 -0.623,0.486 -1.525,0.375 -2.011,-0.247 -0.487,-0.624 -0.376,-1.526 0.247,-2.011 m 9.602,-1.089 -6.313,4.933 -1.045,-1.338 c 0.689,-0.68 0.775,-1.787 0.165,-2.569 -0.611,-0.782 -1.706,-0.967 -2.534,-0.462 l -1.051,-1.345 6.31,-4.938 z"
     clip-path="url(#SVGID_2_)"
     transform="translate(-363.17468,-951.48904)" /><path
     id="path116"
     d="m 402.339,958.708 -5.535,-7.093 c -0.053,-0.067 -0.132,-0.113 -0.219,-0.123 -0.087,-0.012 -0.175,0.013 -0.244,0.066 l -14.184,11.07 c -0.07,0.054 -0.115,0.133 -0.125,0.22 -0.011,0.087 0.013,0.174 0.067,0.243 l 5.536,7.093 c 0.083,0.105 0.218,0.147 0.342,0.116 0.042,-0.012 0.084,-0.031 0.12,-0.059 l 14.185,-11.07 c 0.144,-0.111 0.169,-0.318 0.057,-0.463 m -0.445,0.181 -13.976,10.908 -5.374,-6.886 13.978,-10.906 z"
     clip-path="url(#SVGID_2_)"
     transform="translate(-363.17468,-951.48904)" /><path
     id="path118"
     d="m 441.03,960.84 c -0.049,-0.073 -0.124,-0.123 -0.21,-0.14 l -0.527,-0.103 0.148,-0.717 c 0.017,-0.086 -10e-4,-0.175 -0.05,-0.247 -0.049,-0.073 -0.124,-0.123 -0.21,-0.14 l -2.175,-0.427 c -0.133,-0.026 -0.262,0.03 -0.334,0.136 -0.025,0.037 -0.044,0.078 -0.052,0.124 l -0.149,0.72 -1.809,-0.352 0.148,-0.715 c 0.017,-0.086 -10e-4,-0.175 -0.05,-0.249 -0.049,-0.07 -0.125,-0.12 -0.211,-0.138 l -2.174,-0.427 c -0.133,-0.026 -0.262,0.031 -0.335,0.136 -0.025,0.036 -0.043,0.078 -0.051,0.124 l -0.149,0.718 -0.486,-0.095 c -0.133,-0.026 -0.263,0.031 -0.335,0.136 -0.025,0.037 -0.043,0.079 -0.052,0.124 l -0.951,4.843 c -0.035,0.179 0.082,0.352 0.26,0.387 l 8.466,1.65 c 0.086,0.017 0.175,-0.002 0.248,-0.051 0.072,-0.048 0.122,-0.124 0.139,-0.21 l 0.951,-4.842 c 0.017,-0.084 -10e-4,-0.173 -0.05,-0.245 m -2.991,-1.295 0.008,0.001 v -0.001 l 0.537,0.106 1.38,0.268 -0.152,0.784 -1.926,-0.374 z m -4.623,-0.899 v 0 l 0.536,0.104 1.38,0.269 -10e-4,0.003 -0.151,0.781 -1.922,-0.374 z m 6.285,7.065 -8.207,-1.6 0.901,-4.583 8.207,1.6 z"
     clip-path="url(#SVGID_2_)"
     transform="translate(-363.17468,-951.48904)" /><path
     id="path120"
     d="m 459.565,966.992 c -0.036,0.08 -0.038,0.171 -0.007,0.252 0.032,0.082 0.094,0.148 0.174,0.184 l 2.022,0.905 c 0.124,0.056 0.263,0.028 0.357,-0.057 0.033,-0.03 0.06,-0.067 0.079,-0.11 l 0.301,-0.654 1.658,0.738 -0.299,0.649 c -0.036,0.08 -0.039,0.171 -0.007,0.253 0.031,0.081 0.093,0.147 0.173,0.183 l 2.023,0.906 c 0.124,0.056 0.263,0.028 0.357,-0.058 0.032,-0.03 0.059,-0.067 0.078,-0.109 l 0.301,-0.652 0.508,0.227 c 0.08,0.036 0.171,0.038 0.253,0.007 0.082,-0.032 0.147,-0.094 0.183,-0.174 l 2.101,-4.707 c 0.055,-0.124 0.028,-0.263 -0.058,-0.357 -0.03,-0.031 -0.066,-0.059 -0.109,-0.077 l -16.433,-7.328 c -0.166,-0.074 -0.362,10e-4 -0.436,0.167 l -2.101,4.707 c -0.035,0.08 -0.038,0.17 -0.007,0.252 0.031,0.082 0.094,0.147 0.174,0.183 l 0.476,0.213 -0.302,0.656 c -0.036,0.08 -0.039,0.171 -0.007,0.252 0.031,0.082 0.093,0.148 0.173,0.183 l 2.023,0.907 c 0.123,0.054 0.263,0.027 0.357,-0.058 0.032,-0.03 0.059,-0.067 0.078,-0.109 l 0.304,-0.661 1.645,0.734 -0.301,0.654 c -0.036,0.08 -0.039,0.171 -0.007,0.253 0.031,0.081 0.094,0.146 0.174,0.183 l 2.022,0.905 c 0.124,0.056 0.263,0.028 0.357,-0.058 0.032,-0.029 0.06,-0.066 0.078,-0.108 l 0.303,-0.658 1.642,0.732 z m 2.43,0.489 -0.168,0.377 -0.004,-0.002 -10e-4,0.002 -0.563,-0.253 -1.223,-0.544 0.315,-0.708 1.793,0.798 z m 4.12,2.288 -0.008,-0.004 v 10e-4 l -0.563,-0.252 -1.22,-0.543 10e-4,-0.003 0.014,-0.031 0.3,-0.674 1.792,0.798 z m -14.964,-7.798 2.001,-4.482 16.193,7.218 -1.998,4.476 z m 2.267,1.786 -0.133,0.299 -0.004,-0.002 v 0.002 l -0.563,-0.253 -1.225,-0.545 0.315,-0.707 1.795,0.798 z m 4.36,1.711 -0.219,0.49 -0.005,-0.002 -10e-4,10e-4 -0.563,-0.252 -1.222,-0.544 0.315,-0.708 1.791,0.797 z"
     clip-path="url(#SVGID_2_)"
     transform="translate(-363.17468,-951.48904)" /><path
     id="path122"
     d="m 363.184,962.634 c 0.02,0.085 0.074,0.159 0.148,0.205 l 0.458,0.28 -0.39,0.618 c -0.046,0.075 -0.06,0.165 -0.04,0.25 0.021,0.085 0.074,0.158 0.148,0.204 l 1.888,1.162 c 0.115,0.071 0.256,0.063 0.361,-0.01 0.036,-0.026 0.068,-0.059 0.092,-0.099 l 0.391,-0.622 1.571,0.963 -0.388,0.617 c -0.046,0.074 -0.061,0.165 -0.04,0.25 0.02,0.085 0.074,0.157 0.148,0.203 l 1.887,1.162 c 0.116,0.071 0.257,0.063 0.361,-0.01 0.037,-0.025 0.068,-0.059 0.092,-0.098 l 0.391,-0.621 0.422,0.259 c 0.116,0.071 0.257,0.063 0.361,-0.01 0.036,-0.026 0.068,-0.06 0.092,-0.099 l 2.587,-4.201 c 0.095,-0.155 0.047,-0.359 -0.108,-0.454 l -7.352,-4.511 c -0.075,-0.046 -0.164,-0.061 -0.249,-0.039 -0.086,0.02 -0.159,0.072 -0.205,0.148 l -2.586,4.201 c -0.046,0.077 -0.061,0.167 -0.04,0.252 m 2.348,2.261 -0.007,-0.005 v 10e-4 l -0.466,-0.286 -1.199,-0.734 0.417,-0.682 1.673,1.025 z m 4.016,2.46 v 0 l -0.466,-0.286 -1.198,-0.734 10e-4,-0.002 v -10e-4 l 0.415,-0.679 1.67,1.023 z m -3.413,-8.818 7.126,4.373 -2.448,3.977 -7.127,-4.373 z"
     clip-path="url(#SVGID_2_)"
     transform="translate(-363.17468,-951.48904)" /><path
     id="path124"
     d="m 413.994,954.771 c 0.362,-0.524 1.001,-0.786 1.628,-0.664 0.42,0.082 0.783,0.323 1.023,0.679 0.239,0.354 0.326,0.781 0.244,1.203 -0.043,0.218 -0.128,0.421 -0.253,0.603 -0.362,0.525 -1.001,0.786 -1.628,0.664 -0.421,-0.082 -0.784,-0.323 -1.023,-0.678 -0.239,-0.355 -0.326,-0.783 -0.244,-1.203 0.043,-0.219 0.128,-0.422 0.253,-0.604 m 2.316,1.595 c 0.094,-0.138 0.158,-0.29 0.19,-0.454 0.062,-0.317 -0.003,-0.64 -0.184,-0.906 -0.18,-0.267 -0.453,-0.448 -0.77,-0.511 -0.472,-0.093 -0.954,0.104 -1.227,0.501 -0.094,0.137 -0.158,0.289 -0.19,0.454 -0.061,0.315 0.004,0.638 0.184,0.905 0.18,0.268 0.454,0.447 0.771,0.511 0.472,0.092 0.953,-0.104 1.226,-0.5"
     clip-path="url(#SVGID_2_)"
     transform="translate(-363.17468,-951.48904)" /><path
     id="path126"
     d="m 418.409,955.632 c 0.362,-0.525 1.001,-0.786 1.628,-0.664 0.868,0.169 1.436,1.013 1.267,1.88 -0.043,0.219 -0.128,0.421 -0.253,0.604 -0.362,0.525 -1.001,0.786 -1.628,0.664 -0.868,-0.17 -1.436,-1.013 -1.267,-1.881 0.043,-0.218 0.128,-0.422 0.253,-0.603 m 2.316,1.595 c 0.094,-0.137 0.158,-0.29 0.19,-0.454 0.128,-0.653 -0.301,-1.289 -0.954,-1.417 -0.472,-0.092 -0.954,0.105 -1.226,0.501 -0.094,0.138 -0.158,0.289 -0.191,0.454 -0.127,0.654 0.301,1.289 0.955,1.416 0.472,0.091 0.953,-0.104 1.226,-0.5"
     clip-path="url(#SVGID_2_)"
     transform="translate(-363.17468,-951.48904)" /><path
     id="path128"
     d="m 413.133,959.187 c 0.362,-0.526 1.001,-0.786 1.627,-0.664 0.421,0.082 0.784,0.321 1.023,0.678 0.24,0.355 0.326,0.782 0.244,1.203 -0.042,0.218 -0.127,0.421 -0.252,0.603 -0.363,0.525 -1.002,0.786 -1.628,0.664 -0.868,-0.169 -1.436,-1.013 -1.268,-1.881 0.044,-0.219 0.128,-0.422 0.254,-0.603 m 2.316,1.594 c 0.094,-0.137 0.158,-0.289 0.19,-0.454 0.062,-0.317 -0.004,-0.639 -0.184,-0.906 -0.18,-0.268 -0.453,-0.448 -0.77,-0.511 -0.472,-0.092 -0.954,0.105 -1.227,0.501 -0.094,0.136 -0.158,0.289 -0.19,0.454 -0.127,0.653 0.301,1.289 0.954,1.416 0.472,0.092 0.954,-0.104 1.227,-0.5"
     clip-path="url(#SVGID_2_)"
     transform="translate(-363.17468,-951.48904)" /><path
     id="path130"
     d="m 417.548,960.047 c 0.362,-0.526 1.001,-0.786 1.628,-0.664 0.868,0.169 1.435,1.013 1.266,1.881 -0.042,0.218 -0.127,0.421 -0.252,0.603 -0.363,0.525 -1.001,0.786 -1.628,0.665 -0.421,-0.082 -0.784,-0.323 -1.023,-0.679 -0.239,-0.354 -0.326,-0.781 -0.244,-1.203 0.042,-0.218 0.128,-0.421 0.253,-0.603 m 2.316,1.595 c 0.094,-0.136 0.158,-0.289 0.19,-0.454 0.128,-0.653 -0.3,-1.289 -0.954,-1.417 -0.472,-0.092 -0.953,0.105 -1.226,0.501 -0.094,0.138 -0.159,0.289 -0.191,0.454 -0.061,0.317 0.004,0.639 0.184,0.906 0.18,0.268 0.454,0.449 0.771,0.51 0.472,0.091 0.953,-0.104 1.226,-0.5"
     clip-path="url(#SVGID_2_)"
     transform="translate(-363.17468,-951.48904)" /><path
     id="path132"
     d="m 412.272,963.602 c 0.362,-0.525 1.001,-0.786 1.628,-0.664 0.42,0.082 0.783,0.322 1.023,0.678 0.239,0.355 0.325,0.783 0.244,1.202 -0.043,0.219 -0.128,0.422 -0.253,0.604 -0.362,0.525 -1.001,0.786 -1.628,0.664 -0.868,-0.169 -1.436,-1.013 -1.267,-1.881 0.043,-0.219 0.128,-0.422 0.253,-0.603 m 2.316,1.594 c 0.094,-0.137 0.158,-0.29 0.19,-0.454 0.062,-0.316 -0.004,-0.638 -0.183,-0.906 -0.181,-0.268 -0.455,-0.449 -0.771,-0.511 -0.472,-0.092 -0.953,0.105 -1.226,0.501 -0.095,0.137 -0.159,0.289 -0.191,0.454 -0.127,0.654 0.301,1.289 0.955,1.416 0.472,0.093 0.953,-0.103 1.226,-0.5"
     clip-path="url(#SVGID_2_)"
     transform="translate(-363.17468,-951.48904)" /><path
     id="path134"
     d="m 416.687,964.462 c 0.362,-0.525 1.002,-0.786 1.628,-0.664 0.867,0.169 1.436,1.013 1.267,1.881 -0.042,0.218 -0.128,0.421 -0.253,0.604 -0.362,0.525 -1.001,0.786 -1.628,0.664 -0.42,-0.082 -0.784,-0.323 -1.023,-0.679 -0.239,-0.354 -0.326,-0.781 -0.244,-1.203 0.043,-0.218 0.128,-0.421 0.253,-0.603 m 2.316,1.595 c 0.094,-0.137 0.159,-0.289 0.191,-0.454 0.127,-0.652 -0.301,-1.289 -0.955,-1.416 -0.472,-0.092 -0.953,0.104 -1.226,0.5 -0.094,0.138 -0.159,0.289 -0.19,0.454 -0.062,0.317 0.003,0.64 0.183,0.906 0.181,0.267 0.454,0.449 0.771,0.511 0.472,0.092 0.953,-0.106 1.226,-0.501"
     clip-path="url(#SVGID_2_)"
     transform="translate(-363.17468,-951.48904)" /><path
     id="path136"
     d="m 411.412,968.017 c 0.362,-0.526 1.001,-0.786 1.628,-0.664 0.867,0.169 1.436,1.013 1.266,1.881 -0.042,0.218 -0.127,0.421 -0.252,0.603 -0.363,0.525 -1.001,0.786 -1.628,0.664 -0.867,-0.169 -1.436,-1.013 -1.267,-1.881 0.042,-0.219 0.128,-0.422 0.253,-0.603 m 2.316,1.594 c 0.094,-0.137 0.158,-0.289 0.19,-0.454 0.128,-0.654 -0.3,-1.289 -0.954,-1.417 -0.472,-0.091 -0.954,0.105 -1.226,0.501 -0.095,0.137 -0.159,0.289 -0.191,0.454 -0.127,0.653 0.301,1.289 0.954,1.416 0.473,0.093 0.954,-0.104 1.227,-0.5"
     clip-path="url(#SVGID_2_)"
     transform="translate(-363.17468,-951.48904)" /><path
     id="path138"
     d="m 415.827,968.877 c 0.362,-0.525 1.001,-0.786 1.628,-0.664 0.867,0.169 1.436,1.014 1.266,1.881 -0.042,0.219 -0.127,0.422 -0.252,0.604 -0.362,0.524 -1.001,0.786 -1.628,0.664 -0.868,-0.17 -1.436,-1.014 -1.267,-1.881 0.042,-0.219 0.128,-0.421 0.253,-0.604 m 2.316,1.595 c 0.094,-0.137 0.158,-0.29 0.19,-0.453 0.127,-0.654 -0.3,-1.289 -0.954,-1.417 -0.472,-0.093 -0.953,0.104 -1.226,0.501 -0.095,0.137 -0.158,0.288 -0.191,0.453 -0.127,0.654 0.301,1.289 0.955,1.416 0.472,0.092 0.953,-0.104 1.226,-0.5"
     clip-path="url(#SVGID_2_)"
     transform="translate(-363.17468,-951.48904)" /><path
     id="path140"
     d="m 410.031,971.027 8.83,1.722 c 0.086,0.016 0.175,-0.002 0.248,-0.051 0.073,-0.048 0.123,-0.124 0.139,-0.21 l 3.443,-17.661 c 0.017,-0.085 -10e-4,-0.175 -0.05,-0.247 -0.049,-0.073 -0.124,-0.123 -0.21,-0.14 l -8.831,-1.722 c -0.133,-0.025 -0.262,0.032 -0.335,0.137 -0.024,0.037 -0.043,0.079 -0.051,0.124 l -3.443,17.66 c -0.036,0.18 0.081,0.353 0.26,0.388 m 0.218,-0.428 3.392,-17.401 8.572,1.671 -3.393,17.402 z"
     clip-path="url(#SVGID_2_)"
     transform="translate(-363.17468,-951.48904)" /><path
     id="path142"
     d="m 413.994,954.771 c 0.362,-0.524 1.001,-0.786 1.628,-0.664 0.42,0.082 0.783,0.323 1.022,0.679 0.24,0.354 0.327,0.781 0.245,1.203 -0.043,0.218 -0.128,0.421 -0.253,0.603 -0.362,0.525 -1.001,0.786 -1.628,0.664 -0.421,-0.082 -0.784,-0.323 -1.023,-0.678 -0.239,-0.355 -0.326,-0.783 -0.244,-1.203 0.043,-0.219 0.128,-0.422 0.253,-0.604 m 2.316,1.595 c 0.094,-0.138 0.158,-0.29 0.19,-0.454 0.062,-0.317 -0.003,-0.64 -0.184,-0.906 -0.18,-0.267 -0.453,-0.448 -0.77,-0.511 -0.472,-0.093 -0.954,0.104 -1.227,0.501 -0.094,0.137 -0.158,0.289 -0.19,0.454 -0.061,0.315 0.004,0.638 0.184,0.905 0.18,0.268 0.454,0.449 0.771,0.511 0.472,0.092 0.953,-0.104 1.226,-0.5"
     clip-path="url(#SVGID_2_)"
     transform="translate(-363.17468,-951.48904)" /><path
     id="path144"
     d="m 418.409,955.632 c 0.362,-0.525 1.001,-0.786 1.628,-0.664 0.868,0.169 1.436,1.013 1.267,1.88 -0.043,0.219 -0.128,0.421 -0.253,0.604 -0.362,0.525 -1.001,0.786 -1.628,0.664 -0.868,-0.17 -1.436,-1.013 -1.267,-1.881 0.043,-0.218 0.128,-0.422 0.253,-0.603 m 2.316,1.595 c 0.094,-0.137 0.158,-0.289 0.19,-0.454 0.128,-0.653 -0.301,-1.289 -0.954,-1.417 -0.472,-0.092 -0.954,0.105 -1.226,0.501 -0.094,0.138 -0.158,0.289 -0.191,0.454 -0.127,0.654 0.301,1.289 0.955,1.416 0.472,0.091 0.953,-0.104 1.226,-0.5"
     clip-path="url(#SVGID_2_)"
     transform="translate(-363.17468,-951.48904)" /><path
     id="path146"
     d="m 413.133,959.187 c 0.362,-0.526 1.001,-0.786 1.627,-0.664 0.421,0.082 0.784,0.322 1.023,0.678 0.24,0.355 0.326,0.782 0.244,1.203 -0.042,0.218 -0.127,0.421 -0.252,0.603 -0.363,0.525 -1.002,0.786 -1.628,0.664 -0.868,-0.169 -1.436,-1.013 -1.268,-1.881 0.044,-0.219 0.128,-0.422 0.254,-0.603 m 2.316,1.594 c 0.094,-0.137 0.158,-0.289 0.19,-0.454 0.062,-0.317 -0.004,-0.639 -0.184,-0.906 -0.18,-0.268 -0.454,-0.448 -0.77,-0.511 -0.472,-0.092 -0.954,0.105 -1.227,0.501 -0.094,0.136 -0.158,0.289 -0.19,0.454 -0.127,0.653 0.301,1.289 0.954,1.416 0.473,0.092 0.954,-0.104 1.227,-0.5"
     clip-path="url(#SVGID_2_)"
     transform="translate(-363.17468,-951.48904)" /><path
     id="path148"
     d="m 412.272,963.602 c 0.362,-0.525 1.001,-0.786 1.628,-0.664 0.42,0.082 0.783,0.322 1.023,0.678 0.239,0.355 0.325,0.783 0.244,1.202 -0.043,0.219 -0.128,0.422 -0.253,0.604 -0.362,0.525 -1.001,0.786 -1.628,0.664 -0.868,-0.17 -1.436,-1.013 -1.267,-1.881 0.043,-0.219 0.128,-0.422 0.253,-0.603 m 2.316,1.594 c 0.094,-0.137 0.158,-0.29 0.19,-0.454 0.062,-0.316 -0.004,-0.638 -0.183,-0.906 -0.181,-0.268 -0.455,-0.449 -0.771,-0.511 -0.472,-0.092 -0.953,0.105 -1.226,0.501 -0.095,0.137 -0.159,0.289 -0.191,0.454 -0.127,0.654 0.301,1.289 0.955,1.416 0.472,0.093 0.953,-0.103 1.226,-0.5"
     clip-path="url(#SVGID_2_)"
     transform="translate(-363.17468,-951.48904)" /><path
     id="path150"
     d="m 416.687,964.462 c 0.362,-0.525 1.002,-0.786 1.628,-0.664 0.867,0.169 1.436,1.013 1.267,1.881 -0.042,0.218 -0.128,0.421 -0.253,0.604 -0.362,0.525 -1.001,0.786 -1.628,0.664 -0.42,-0.082 -0.784,-0.323 -1.023,-0.679 -0.239,-0.354 -0.326,-0.781 -0.244,-1.203 0.043,-0.218 0.128,-0.421 0.253,-0.603 m 2.316,1.595 c 0.094,-0.137 0.159,-0.289 0.191,-0.454 0.127,-0.652 -0.301,-1.289 -0.955,-1.416 -0.472,-0.092 -0.953,0.104 -1.226,0.5 -0.094,0.138 -0.159,0.289 -0.19,0.454 -0.062,0.317 0.003,0.64 0.183,0.906 0.181,0.267 0.454,0.449 0.771,0.511 0.472,0.092 0.953,-0.106 1.226,-0.501"
     clip-path="url(#SVGID_2_)"
     transform="translate(-363.17468,-951.48904)" /><path
     id="path152"
     d="m 411.412,968.017 c 0.362,-0.526 1.001,-0.786 1.628,-0.664 0.867,0.169 1.436,1.013 1.266,1.881 -0.042,0.218 -0.127,0.421 -0.252,0.603 -0.363,0.525 -1.001,0.786 -1.628,0.664 -0.867,-0.169 -1.436,-1.013 -1.267,-1.881 0.042,-0.219 0.128,-0.422 0.253,-0.603 m 2.316,1.594 c 0.094,-0.137 0.158,-0.289 0.19,-0.454 0.128,-0.654 -0.3,-1.289 -0.954,-1.417 -0.472,-0.091 -0.954,0.105 -1.226,0.501 -0.095,0.137 -0.159,0.289 -0.191,0.454 -0.127,0.653 0.301,1.289 0.954,1.416 0.473,0.093 0.954,-0.104 1.227,-0.5"
     clip-path="url(#SVGID_2_)"
     transform="translate(-363.17468,-951.48904)" /><path
     id="path154"
     d="m 415.827,968.877 c 0.362,-0.525 1.001,-0.786 1.628,-0.664 0.867,0.169 1.436,1.014 1.267,1.881 -0.043,0.219 -0.128,0.422 -0.253,0.604 -0.362,0.524 -1.001,0.786 -1.628,0.664 -0.868,-0.17 -1.436,-1.014 -1.267,-1.881 0.042,-0.219 0.128,-0.421 0.253,-0.604 m 2.316,1.595 c 0.094,-0.137 0.158,-0.288 0.19,-0.453 0.127,-0.654 -0.3,-1.289 -0.954,-1.417 -0.472,-0.093 -0.953,0.104 -1.226,0.501 -0.095,0.137 -0.158,0.288 -0.19,0.453 -0.128,0.654 0.3,1.289 0.954,1.416 0.472,0.092 0.953,-0.104 1.226,-0.5"
     clip-path="url(#SVGID_2_)"
     transform="translate(-363.17468,-951.48904)" /><path
     id="path156"
     d="m 659.869,962.626 c -0.131,-1.06 0.626,-2.029 1.686,-2.16 1.061,-0.13 2.029,0.626 2.159,1.687 0.131,1.061 -0.625,2.028 -1.685,2.159 -1.06,0.131 -2.029,-0.626 -2.16,-1.686 m 2.098,1.185 c 0.784,-0.097 1.343,-0.813 1.247,-1.597 -0.096,-0.784 -0.813,-1.343 -1.597,-1.247 -0.784,0.097 -1.344,0.813 -1.247,1.597 0.097,0.784 0.813,1.344 1.597,1.247"
     clip-path="url(#SVGID_2_)"
     transform="translate(-363.17468,-951.48904)" /><path
     id="path158"
     d="m 650.706,963.72 c -0.13,-1.06 0.626,-2.027 1.686,-2.159 1.061,-0.13 2.029,0.627 2.159,1.687 0.131,1.061 -0.625,2.029 -1.685,2.159 -1.06,0.13 -2.029,-0.626 -2.16,-1.687 m 2.098,1.186 c 0.784,-0.098 1.343,-0.813 1.247,-1.598 -0.096,-0.783 -0.813,-1.343 -1.597,-1.246 -0.784,0.097 -1.344,0.813 -1.247,1.597 0.097,0.784 0.813,1.344 1.597,1.247"
     clip-path="url(#SVGID_2_)"
     transform="translate(-363.17468,-951.48904)" /><path
     id="path160"
     d="m 665.218,959.391 0.067,0.544 0.482,3.915 0.067,0.545 0.167,1.358 -1.359,0.168 -0.544,0.067 -3.915,0.481 -0.545,0.067 -3.915,0.481 -0.544,0.067 -3.916,0.481 -0.544,0.067 -1.374,0.169 -0.168,-1.358 -0.067,-0.545 -0.482,-3.916 -0.067,-0.544 -0.167,-1.358 16.657,-2.05 z m -0.392,-1.055 -7.68,0.937 0.208,1.701 c 0.943,0.024 1.755,0.736 1.873,1.699 0.118,0.965 -0.496,1.853 -1.405,2.104 l 0.207,1.692 7.68,-0.943 z m -7.697,3.152 c -0.784,0.097 -1.343,0.813 -1.247,1.597 0.097,0.784 0.813,1.344 1.597,1.247 0.784,-0.096 1.344,-0.813 1.247,-1.598 -0.096,-0.783 -0.812,-1.342 -1.597,-1.246 m -7.559,6.02 7.952,-0.976 -0.207,-1.686 c -0.968,0.006 -1.812,-0.716 -1.933,-1.7 -0.122,-0.984 0.523,-1.89 1.464,-2.119 l -0.208,-1.692 -7.952,0.97 z"
     clip-path="url(#SVGID_2_)"
     transform="translate(-363.17468,-951.48904)" /><path
     id="path162"
     d="m 648.491,968.522 -1.102,-8.929 c -0.01,-0.087 0.014,-0.176 0.068,-0.244 0.053,-0.069 0.132,-0.114 0.219,-0.124 l 17.858,-2.203 c 0.087,-0.011 0.175,0.013 0.244,0.068 0.069,0.053 0.113,0.132 0.124,0.219 l 1.101,8.929 c 0.017,0.135 -0.05,0.26 -0.159,0.325 -0.038,0.021 -0.081,0.037 -0.128,0.043 l -17.857,2.202 c -0.181,0.023 -0.346,-0.106 -0.368,-0.286 m 0.442,-0.188 17.596,-2.17 -1.069,-8.667 -17.596,2.17 z"
     clip-path="url(#SVGID_2_)"
     transform="translate(-363.17468,-951.48904)" /><path
     id="path164"
     d="m 486.457,964.725 c 0.864,-0.628 2.077,-0.436 2.706,0.428 0.628,0.863 0.436,2.077 -0.428,2.706 -0.864,0.63 -2.078,0.437 -2.706,-0.428 -0.628,-0.864 -0.436,-2.078 0.428,-2.706 m -0.02,2.409 c 0.465,0.639 1.362,0.781 2.001,0.317 0.64,-0.465 0.781,-1.363 0.316,-2.002 -0.464,-0.64 -1.362,-0.781 -2.001,-0.316 -0.639,0.464 -0.781,1.362 -0.316,2.001"
     clip-path="url(#SVGID_2_)"
     transform="translate(-363.17468,-951.48904)" /><path
     id="path166"
     d="m 481.056,957.242 c 0.865,-0.628 2.078,-0.436 2.707,0.428 0.628,0.864 0.436,2.078 -0.428,2.705 -0.864,0.63 -2.078,0.438 -2.706,-0.427 -0.628,-0.865 -0.436,-2.078 0.427,-2.706 m -0.019,2.409 c 0.465,0.639 1.362,0.781 2.001,0.316 0.639,-0.465 0.781,-1.362 0.316,-2.001 -0.464,-0.64 -1.362,-0.781 -2.001,-0.316 -0.639,0.464 -0.781,1.363 -0.316,2.001"
     clip-path="url(#SVGID_2_)"
     transform="translate(-363.17468,-951.48904)" /><path
     id="path168"
     d="m 491.879,967.835 -0.444,0.322 -3.19,2.319 -0.445,0.322 -1.106,0.805 -0.806,-1.106 -0.322,-0.444 -2.32,-3.189 -0.323,-0.444 -2.319,-3.19 -0.323,-0.443 -2.32,-3.191 -0.322,-0.444 -0.814,-1.118 1.107,-0.807 0.444,-0.322 3.191,-2.319 0.444,-0.323 1.107,-0.804 9.868,13.573 z m 0.732,-0.855 -4.542,-6.264 -1.387,1.008 c 0.436,0.836 0.206,1.892 -0.579,2.461 -0.786,0.572 -1.861,0.464 -2.521,-0.209 l -1.379,1.002 4.547,6.26 z m -6.487,-5.204 c -0.465,-0.639 -1.363,-0.78 -2.002,-0.315 -0.638,0.464 -0.781,1.362 -0.316,2.001 0.465,0.639 1.362,0.781 2.001,0.315 0.638,-0.464 0.78,-1.361 0.317,-2.001 m -8.931,-3.692 4.709,6.481 1.373,-0.998 c -0.475,-0.844 -0.252,-1.932 0.55,-2.515 0.802,-0.584 1.906,-0.459 2.563,0.254 l 1.381,-1.003 -4.705,-6.486 z"
     clip-path="url(#SVGID_2_)"
     transform="translate(-363.17468,-951.48904)" /><path
     id="path170"
     d="m 475.784,957.631 7.275,-5.292 c 0.071,-0.051 0.159,-0.072 0.245,-0.058 0.087,0.012 0.164,0.06 0.216,0.131 l 10.584,14.55 c 0.051,0.071 0.073,0.16 0.059,0.246 -0.014,0.087 -0.061,0.164 -0.132,0.215 l -7.275,5.292 c -0.11,0.08 -0.252,0.083 -0.361,0.019 -0.038,-0.022 -0.073,-0.053 -0.1,-0.09 l -10.584,-14.552 c -0.107,-0.146 -0.075,-0.353 0.073,-0.461 m 0.378,0.296 10.428,14.339 7.063,-5.138 -10.429,-14.338 z"
     clip-path="url(#SVGID_2_)"
     transform="translate(-363.17468,-951.48904)" /><path
     id="path172"
     d="m 528.904,970.89 c -0.612,0.18 -1.272,-0.02 -1.682,-0.509 -0.276,-0.327 -0.407,-0.743 -0.369,-1.171 0.037,-0.426 0.239,-0.813 0.567,-1.088 0.171,-0.143 0.364,-0.247 0.576,-0.309 0.612,-0.182 1.273,0.018 1.683,0.508 0.275,0.328 0.406,0.744 0.369,1.17 -0.038,0.427 -0.24,0.814 -0.568,1.089 -0.169,0.143 -0.364,0.246 -0.576,0.31 m -0.796,-2.698 c -0.159,0.047 -0.305,0.125 -0.433,0.233 -0.248,0.206 -0.4,0.498 -0.428,0.819 -0.028,0.321 0.07,0.635 0.278,0.882 0.309,0.368 0.806,0.52 1.268,0.384 0.159,-0.048 0.305,-0.126 0.433,-0.234 0.247,-0.207 0.399,-0.498 0.428,-0.82 0.028,-0.32 -0.071,-0.634 -0.278,-0.881 -0.309,-0.369 -0.807,-0.518 -1.268,-0.383"
     clip-path="url(#SVGID_2_)"
     transform="translate(-363.17468,-951.48904)" /><path
     id="path174"
     d="m 526.015,967.441 c -0.612,0.182 -1.273,-0.019 -1.682,-0.508 -0.569,-0.678 -0.479,-1.691 0.198,-2.259 0.171,-0.143 0.364,-0.247 0.576,-0.31 0.612,-0.181 1.273,0.019 1.683,0.509 0.568,0.678 0.479,1.69 -0.199,2.258 -0.17,0.143 -0.364,0.249 -0.576,0.31 m -0.796,-2.697 c -0.159,0.048 -0.305,0.125 -0.433,0.233 -0.511,0.428 -0.578,1.191 -0.15,1.702 0.309,0.368 0.806,0.519 1.267,0.382 0.16,-0.047 0.305,-0.125 0.434,-0.233 0.511,-0.427 0.577,-1.19 0.15,-1.7 -0.309,-0.369 -0.807,-0.52 -1.268,-0.384"
     clip-path="url(#SVGID_2_)"
     transform="translate(-363.17468,-951.48904)" /><path
     id="path176"
     d="m 532.353,968 c -0.613,0.181 -1.274,-0.02 -1.684,-0.51 -0.275,-0.327 -0.406,-0.743 -0.368,-1.17 0.038,-0.426 0.239,-0.813 0.567,-1.088 0.171,-0.143 0.365,-0.247 0.576,-0.309 0.612,-0.182 1.273,0.019 1.683,0.508 0.568,0.677 0.479,1.69 -0.198,2.259 -0.171,0.142 -0.366,0.248 -0.576,0.31 m -0.797,-2.697 c -0.159,0.047 -0.305,0.126 -0.433,0.232 -0.248,0.208 -0.4,0.499 -0.428,0.82 -0.028,0.322 0.07,0.634 0.277,0.882 0.309,0.369 0.807,0.519 1.269,0.383 0.159,-0.047 0.305,-0.126 0.433,-0.232 0.511,-0.428 0.578,-1.192 0.15,-1.702 -0.309,-0.369 -0.807,-0.52 -1.268,-0.383"
     clip-path="url(#SVGID_2_)"
     transform="translate(-363.17468,-951.48904)" /><path
     id="path178"
     d="m 529.462,964.552 c -0.612,0.182 -1.273,-0.019 -1.683,-0.508 -0.568,-0.678 -0.478,-1.69 0.2,-2.259 0.17,-0.143 0.363,-0.247 0.575,-0.309 0.613,-0.182 1.273,0.018 1.683,0.508 0.275,0.328 0.406,0.744 0.369,1.17 -0.038,0.427 -0.239,0.813 -0.568,1.088 -0.17,0.143 -0.364,0.247 -0.576,0.31 m -0.796,-2.697 c -0.159,0.047 -0.305,0.125 -0.433,0.232 -0.511,0.428 -0.579,1.191 -0.151,1.702 0.309,0.368 0.807,0.519 1.268,0.382 0.16,-0.046 0.306,-0.125 0.434,-0.232 0.247,-0.207 0.399,-0.498 0.428,-0.819 0.028,-0.322 -0.071,-0.635 -0.278,-0.882 -0.309,-0.369 -0.807,-0.519 -1.268,-0.383"
     clip-path="url(#SVGID_2_)"
     transform="translate(-363.17468,-951.48904)" /><path
     id="path180"
     d="m 535.8,965.11 c -0.613,0.18 -1.274,-0.02 -1.684,-0.508 -0.275,-0.328 -0.406,-0.744 -0.368,-1.171 0.037,-0.428 0.239,-0.813 0.567,-1.089 0.171,-0.143 0.364,-0.246 0.576,-0.309 0.612,-0.181 1.273,0.018 1.683,0.507 0.568,0.678 0.479,1.692 -0.199,2.26 -0.169,0.143 -0.364,0.247 -0.575,0.31 m -0.797,-2.697 c -0.159,0.047 -0.305,0.126 -0.434,0.233 -0.246,0.207 -0.398,0.499 -0.427,0.819 -0.028,0.321 0.071,0.635 0.278,0.883 0.308,0.367 0.806,0.518 1.268,0.382 0.159,-0.046 0.305,-0.125 0.433,-0.233 0.51,-0.428 0.578,-1.19 0.15,-1.701 -0.309,-0.369 -0.807,-0.519 -1.268,-0.383"
     clip-path="url(#SVGID_2_)"
     transform="translate(-363.17468,-951.48904)" /><path
     id="path182"
     d="m 532.91,961.663 c -0.612,0.18 -1.273,-0.02 -1.683,-0.508 -0.568,-0.679 -0.479,-1.692 0.199,-2.26 0.17,-0.143 0.364,-0.247 0.576,-0.31 0.612,-0.181 1.273,0.019 1.683,0.509 0.275,0.328 0.406,0.744 0.368,1.17 -0.037,0.428 -0.239,0.813 -0.567,1.088 -0.17,0.144 -0.364,0.248 -0.576,0.311 m -0.796,-2.697 c -0.159,0.047 -0.305,0.125 -0.434,0.233 -0.51,0.427 -0.577,1.19 -0.149,1.701 0.308,0.368 0.806,0.519 1.267,0.383 0.159,-0.047 0.306,-0.125 0.434,-0.233 0.247,-0.207 0.399,-0.499 0.427,-0.82 0.028,-0.32 -0.07,-0.634 -0.277,-0.881 -0.309,-0.37 -0.807,-0.519 -1.268,-0.383"
     clip-path="url(#SVGID_2_)"
     transform="translate(-363.17468,-951.48904)" /><path
     id="path184"
     d="m 539.248,962.221 c -0.613,0.181 -1.273,-0.019 -1.684,-0.508 -0.567,-0.678 -0.478,-1.691 0.199,-2.259 0.171,-0.144 0.365,-0.247 0.576,-0.311 0.613,-0.18 1.273,0.02 1.683,0.509 0.568,0.678 0.479,1.691 -0.199,2.26 -0.17,0.142 -0.365,0.246 -0.575,0.309 m -0.797,-2.698 c -0.159,0.047 -0.305,0.125 -0.434,0.233 -0.51,0.428 -0.577,1.19 -0.149,1.702 0.309,0.368 0.806,0.519 1.268,0.382 0.159,-0.047 0.305,-0.125 0.433,-0.232 0.511,-0.428 0.578,-1.191 0.15,-1.702 -0.309,-0.368 -0.807,-0.518 -1.268,-0.383"
     clip-path="url(#SVGID_2_)"
     transform="translate(-363.17468,-951.48904)" /><path
     id="path186"
     d="m 536.358,958.773 c -0.613,0.181 -1.274,-0.02 -1.684,-0.508 -0.567,-0.679 -0.478,-1.691 0.199,-2.26 0.171,-0.143 0.364,-0.247 0.576,-0.309 0.612,-0.182 1.273,0.018 1.683,0.508 0.568,0.677 0.479,1.69 -0.199,2.258 -0.17,0.144 -0.364,0.248 -0.575,0.311 m -0.797,-2.697 c -0.159,0.047 -0.305,0.125 -0.433,0.233 -0.511,0.428 -0.578,1.19 -0.15,1.701 0.308,0.368 0.806,0.519 1.268,0.383 0.159,-0.047 0.305,-0.125 0.433,-0.233 0.511,-0.428 0.578,-1.191 0.15,-1.701 -0.309,-0.369 -0.807,-0.519 -1.268,-0.383"
     clip-path="url(#SVGID_2_)"
     transform="translate(-363.17468,-951.48904)" /><path
     id="path188"
     d="m 542.215,960.749 -5.779,-6.895 c -0.057,-0.067 -0.137,-0.109 -0.224,-0.116 -0.087,-0.008 -0.174,0.019 -0.241,0.076 l -13.79,11.558 c -0.067,0.056 -0.109,0.135 -0.117,0.224 -0.007,0.088 0.02,0.174 0.076,0.24 l 5.779,6.896 c 0.087,0.104 0.224,0.141 0.346,0.104 0.043,-0.013 0.083,-0.034 0.119,-0.063 l 13.789,-11.559 c 0.14,-0.117 0.159,-0.325 0.042,-0.465 m -0.439,0.196 -13.587,11.389 -5.61,-6.693 13.588,-11.389 z"
     clip-path="url(#SVGID_2_)"
     transform="translate(-363.17468,-951.48904)" /><path
     id="path190"
     d="m 528.904,970.89 c -0.612,0.18 -1.272,-0.02 -1.682,-0.509 -0.276,-0.328 -0.407,-0.743 -0.369,-1.171 0.037,-0.426 0.239,-0.813 0.567,-1.088 0.171,-0.143 0.364,-0.247 0.576,-0.31 0.612,-0.181 1.273,0.019 1.683,0.509 0.275,0.328 0.406,0.744 0.369,1.17 -0.038,0.427 -0.239,0.814 -0.568,1.089 -0.169,0.143 -0.364,0.246 -0.576,0.31 m -0.796,-2.698 c -0.159,0.047 -0.305,0.125 -0.433,0.233 -0.248,0.206 -0.4,0.498 -0.428,0.819 -0.028,0.321 0.071,0.635 0.278,0.882 0.309,0.368 0.806,0.519 1.268,0.384 0.159,-0.048 0.305,-0.126 0.433,-0.234 0.247,-0.207 0.399,-0.498 0.428,-0.82 0.028,-0.319 -0.071,-0.634 -0.278,-0.881 -0.309,-0.369 -0.807,-0.518 -1.268,-0.383"
     clip-path="url(#SVGID_2_)"
     transform="translate(-363.17468,-951.48904)" /><path
     id="path192"
     d="m 526.015,967.441 c -0.612,0.182 -1.273,-0.019 -1.682,-0.508 -0.569,-0.678 -0.479,-1.69 0.198,-2.259 0.171,-0.144 0.364,-0.247 0.576,-0.31 0.612,-0.181 1.273,0.019 1.683,0.509 0.568,0.678 0.479,1.69 -0.199,2.258 -0.17,0.143 -0.364,0.249 -0.576,0.31 m -0.796,-2.696 c -0.159,0.047 -0.305,0.125 -0.433,0.232 -0.511,0.428 -0.578,1.191 -0.15,1.702 0.309,0.368 0.806,0.519 1.267,0.382 0.16,-0.047 0.305,-0.125 0.434,-0.232 0.511,-0.428 0.577,-1.191 0.15,-1.701 -0.309,-0.369 -0.807,-0.52 -1.268,-0.383"
     clip-path="url(#SVGID_2_)"
     transform="translate(-363.17468,-951.48904)" /><path
     id="path194"
     d="m 532.353,968 c -0.613,0.181 -1.274,-0.02 -1.684,-0.51 -0.275,-0.327 -0.406,-0.743 -0.368,-1.17 0.038,-0.426 0.239,-0.813 0.567,-1.088 0.171,-0.143 0.365,-0.247 0.576,-0.309 0.613,-0.182 1.273,0.019 1.683,0.508 0.568,0.677 0.479,1.69 -0.198,2.259 -0.171,0.142 -0.366,0.248 -0.576,0.31 m -0.797,-2.697 c -0.159,0.047 -0.305,0.126 -0.433,0.232 -0.248,0.208 -0.399,0.499 -0.428,0.82 -0.028,0.322 0.07,0.634 0.277,0.882 0.309,0.369 0.807,0.52 1.269,0.383 0.159,-0.047 0.305,-0.126 0.433,-0.232 0.511,-0.428 0.578,-1.192 0.15,-1.702 -0.309,-0.369 -0.807,-0.52 -1.268,-0.383"
     clip-path="url(#SVGID_2_)"
     transform="translate(-363.17468,-951.48904)" /><path
     id="path196"
     d="m 529.462,964.552 c -0.612,0.182 -1.273,-0.019 -1.683,-0.508 -0.568,-0.678 -0.478,-1.69 0.2,-2.259 0.17,-0.143 0.363,-0.247 0.575,-0.309 0.613,-0.182 1.273,0.018 1.683,0.508 0.275,0.328 0.406,0.744 0.369,1.17 -0.038,0.427 -0.239,0.813 -0.567,1.088 -0.171,0.143 -0.365,0.247 -0.577,0.31 m -0.796,-2.697 c -0.159,0.047 -0.305,0.125 -0.433,0.232 -0.511,0.428 -0.579,1.191 -0.151,1.702 0.309,0.368 0.807,0.519 1.269,0.382 0.159,-0.046 0.305,-0.125 0.433,-0.232 0.248,-0.207 0.399,-0.498 0.428,-0.819 0.028,-0.322 -0.071,-0.635 -0.278,-0.882 -0.309,-0.369 -0.807,-0.519 -1.268,-0.383"
     clip-path="url(#SVGID_2_)"
     transform="translate(-363.17468,-951.48904)" /><path
     id="path198"
     d="m 535.8,965.11 c -0.613,0.18 -1.274,-0.02 -1.684,-0.508 -0.275,-0.328 -0.406,-0.744 -0.368,-1.171 0.037,-0.428 0.239,-0.813 0.567,-1.089 0.171,-0.143 0.364,-0.246 0.576,-0.309 0.612,-0.181 1.273,0.018 1.683,0.507 0.568,0.678 0.479,1.692 -0.199,2.26 -0.169,0.143 -0.364,0.247 -0.575,0.31 m -0.797,-2.697 c -0.159,0.047 -0.305,0.126 -0.434,0.233 -0.246,0.207 -0.398,0.499 -0.427,0.819 -0.028,0.321 0.071,0.635 0.278,0.883 0.308,0.367 0.806,0.518 1.268,0.382 0.159,-0.046 0.304,-0.125 0.433,-0.233 0.51,-0.428 0.578,-1.19 0.15,-1.701 -0.309,-0.369 -0.807,-0.519 -1.268,-0.383"
     clip-path="url(#SVGID_2_)"
     transform="translate(-363.17468,-951.48904)" /><path
     id="path200"
     d="m 532.91,961.663 c -0.612,0.18 -1.273,-0.02 -1.683,-0.508 -0.568,-0.679 -0.479,-1.692 0.199,-2.26 0.17,-0.143 0.364,-0.247 0.576,-0.31 0.612,-0.181 1.273,0.019 1.683,0.509 0.275,0.328 0.406,0.744 0.368,1.17 -0.037,0.428 -0.239,0.813 -0.567,1.088 -0.17,0.144 -0.364,0.248 -0.576,0.311 m -0.796,-2.697 c -0.159,0.047 -0.305,0.125 -0.434,0.233 -0.51,0.427 -0.577,1.19 -0.149,1.701 0.308,0.368 0.806,0.519 1.267,0.383 0.16,-0.047 0.306,-0.125 0.434,-0.233 0.247,-0.207 0.399,-0.499 0.427,-0.82 0.029,-0.32 -0.07,-0.634 -0.277,-0.881 -0.309,-0.37 -0.807,-0.519 -1.268,-0.383"
     clip-path="url(#SVGID_2_)"
     transform="translate(-363.17468,-951.48904)" /><path
     id="path202"
     d="m 539.248,962.221 c -0.613,0.181 -1.273,-0.019 -1.684,-0.508 -0.568,-0.678 -0.478,-1.691 0.199,-2.259 0.171,-0.144 0.365,-0.247 0.576,-0.311 0.613,-0.18 1.273,0.02 1.683,0.509 0.568,0.678 0.479,1.691 -0.199,2.26 -0.17,0.142 -0.365,0.246 -0.575,0.309 m -0.797,-2.698 c -0.159,0.047 -0.305,0.125 -0.434,0.233 -0.51,0.428 -0.577,1.19 -0.149,1.702 0.309,0.368 0.806,0.519 1.268,0.382 0.159,-0.047 0.305,-0.125 0.433,-0.232 0.511,-0.428 0.578,-1.191 0.15,-1.702 -0.309,-0.368 -0.807,-0.518 -1.268,-0.383"
     clip-path="url(#SVGID_2_)"
     transform="translate(-363.17468,-951.48904)" /><path
     id="path204"
     d="m 536.358,958.773 c -0.613,0.181 -1.274,-0.02 -1.684,-0.508 -0.567,-0.679 -0.478,-1.691 0.199,-2.26 0.171,-0.143 0.364,-0.247 0.576,-0.309 0.612,-0.182 1.273,0.018 1.683,0.508 0.568,0.677 0.479,1.69 -0.199,2.258 -0.17,0.144 -0.364,0.248 -0.575,0.311 m -0.797,-2.697 c -0.159,0.047 -0.305,0.125 -0.433,0.233 -0.511,0.428 -0.578,1.19 -0.15,1.701 0.308,0.368 0.806,0.519 1.268,0.383 0.159,-0.047 0.305,-0.125 0.433,-0.233 0.511,-0.428 0.578,-1.191 0.15,-1.701 -0.309,-0.369 -0.807,-0.519 -1.268,-0.383"
     clip-path="url(#SVGID_2_)"
     transform="translate(-363.17468,-951.48904)" /><path
     id="path206"
     d="m 614.58,962.014 c -0.029,-0.083 -0.089,-0.151 -0.167,-0.189 l -0.483,-0.235 0.329,-0.653 c 0.038,-0.079 0.044,-0.17 0.015,-0.253 -0.028,-0.082 -0.088,-0.15 -0.167,-0.189 l -1.989,-0.975 c -0.122,-0.061 -0.262,-0.038 -0.359,0.045 -0.033,0.028 -0.062,0.063 -0.082,0.105 l -0.33,0.657 -1.656,-0.808 0.327,-0.652 c 0.039,-0.078 0.045,-0.169 0.016,-0.252 -0.029,-0.083 -0.088,-0.15 -0.167,-0.188 l -1.99,-0.977 c -0.121,-0.059 -0.261,-0.037 -0.358,0.045 -0.034,0.029 -0.062,0.065 -0.083,0.107 l -0.328,0.655 -0.446,-0.219 c -0.122,-0.06 -0.262,-0.037 -0.359,0.045 -0.033,0.029 -0.061,0.065 -0.082,0.107 l -2.171,4.43 c -0.081,0.164 -0.013,0.361 0.151,0.44 l 7.75,3.787 c 0.079,0.038 0.169,0.044 0.252,0.015 0.083,-0.028 0.151,-0.088 0.189,-0.167 l 2.172,-4.43 c 0.039,-0.078 0.044,-0.169 0.016,-0.251 m -2.554,-2.026 0.007,0.003 v -10e-4 l 0.491,0.241 1.264,0.616 -0.35,0.719 -1.763,-0.86 z m -4.234,-2.064 10e-4,-10e-4 0.491,0.24 1.263,0.616 -10e-4,0.003 h -0.001 l -0.348,0.715 -1.76,-0.857 z m 4.243,8.45 -7.513,-3.67 2.056,-4.192 7.513,3.67 z"
     clip-path="url(#SVGID_2_)"
     transform="translate(-363.17468,-951.48904)" /><path
     id="path208"
     d="m 561.625,966.743 c -0.008,0.087 0.019,0.174 0.076,0.241 0.056,0.067 0.135,0.109 0.224,0.117 l 2.207,0.197 c 0.135,0.012 0.257,-0.059 0.318,-0.17 0.021,-0.039 0.035,-0.084 0.039,-0.13 l 0.072,-0.718 1.808,0.16 -0.072,0.71 c -0.008,0.088 0.019,0.175 0.076,0.242 0.056,0.066 0.137,0.108 0.224,0.116 l 2.207,0.197 c 0.135,0.013 0.258,-0.059 0.319,-0.17 0.02,-0.039 0.034,-0.083 0.038,-0.129 l 0.072,-0.715 0.555,0.049 c 0.087,0.007 0.173,-0.02 0.241,-0.076 0.067,-0.056 0.109,-0.136 0.116,-0.224 l 0.454,-5.135 c 0.012,-0.135 -0.059,-0.257 -0.17,-0.318 -0.039,-0.021 -0.083,-0.035 -0.129,-0.039 l -17.924,-1.578 c -0.181,-0.016 -0.342,0.118 -0.358,0.3 l -0.454,5.135 c -0.007,0.087 0.02,0.173 0.076,0.241 0.056,0.066 0.137,0.108 0.224,0.115 l 0.519,0.046 -0.072,0.72 c -0.008,0.087 0.019,0.174 0.076,0.24 0.056,0.067 0.136,0.109 0.223,0.117 l 2.207,0.197 c 0.135,0.012 0.258,-0.058 0.319,-0.17 0.021,-0.039 0.035,-0.083 0.039,-0.129 l 0.072,-0.724 1.795,0.158 -0.072,0.716 c -0.009,0.089 0.019,0.176 0.076,0.242 0.056,0.066 0.136,0.108 0.223,0.116 l 2.207,0.198 c 0.135,0.012 0.258,-0.06 0.318,-0.171 0.022,-0.038 0.036,-0.082 0.04,-0.128 l 0.072,-0.722 1.791,0.159 z m 2.458,-0.329 -0.036,0.412 -0.005,-10e-4 v 0.002 l -0.614,-0.055 -1.334,-0.117 0.067,-0.771 1.956,0.171 z m 4.64,0.821 -0.009,-10e-4 v 0.002 l -0.614,-0.056 -1.33,-0.116 v -0.003 l 0.003,-0.034 0.063,-0.735 1.955,0.172 z m -16.688,-2.501 0.433,-4.891 17.66,1.555 -0.431,4.882 z m 2.724,0.952 -0.028,0.326 -0.004,-10e-4 v 0.002 l -0.615,-0.056 -1.335,-0.116 0.068,-0.772 1.956,0.171 z m 4.68,0.198 -0.047,0.535 -0.006,-10e-4 v 10e-4 l -0.615,-0.055 -1.332,-0.116 0.067,-0.771 1.954,0.171 z"
     clip-path="url(#SVGID_2_)"
     transform="translate(-363.17468,-951.48904)" /><path
     id="path210"
     d="m 502.764,963.964 c 0.032,0.081 0.095,0.146 0.175,0.182 l 0.492,0.214 -0.299,0.667 c -0.035,0.081 -0.037,0.172 -0.005,0.253 0.032,0.081 0.095,0.147 0.175,0.183 l 2.03,0.887 c 0.125,0.055 0.264,0.027 0.357,-0.061 0.032,-0.029 0.059,-0.066 0.077,-0.109 l 0.301,-0.671 1.69,0.735 -0.299,0.665 c -0.035,0.08 -0.037,0.171 -0.004,0.252 0.032,0.082 0.095,0.146 0.175,0.183 l 2.03,0.888 c 0.124,0.054 0.263,0.026 0.356,-0.061 0.033,-0.03 0.059,-0.067 0.078,-0.11 l 0.3,-0.669 0.454,0.198 c 0.124,0.055 0.263,0.025 0.357,-0.061 0.032,-0.03 0.059,-0.066 0.077,-0.109 l 1.977,-4.521 c 0.073,-0.167 -0.004,-0.362 -0.171,-0.434 l -7.908,-3.444 c -0.08,-0.035 -0.17,-0.037 -0.252,-0.005 -0.082,0.032 -0.147,0.095 -0.182,0.176 l -1.976,4.521 c -0.035,0.079 -0.037,0.17 -0.005,0.251 m 2.64,1.912 -0.007,-0.005 -10e-4,0.002 -0.501,-0.22 -1.289,-0.56 0.318,-0.733 1.799,0.782 z m 4.319,1.878 v 0 l -0.501,-0.219 -1.289,-0.562 0.001,-0.002 0.317,-0.73 1.796,0.781 z m -4.607,-8.259 7.666,3.339 -1.871,4.278 -7.666,-3.338 z"
     clip-path="url(#SVGID_2_)"
     transform="translate(-363.17468,-951.48904)" /><path
     id="path212"
     d="m 580.458,958.686 c -0.137,-0.623 0.108,-1.268 0.625,-1.643 0.346,-0.252 0.77,-0.354 1.193,-0.286 0.423,0.067 0.794,0.295 1.046,0.642 0.131,0.181 0.221,0.381 0.268,0.597 0.138,0.623 -0.107,1.269 -0.624,1.643 -0.347,0.252 -0.771,0.354 -1.193,0.286 -0.423,-0.067 -0.795,-0.295 -1.046,-0.642 -0.131,-0.181 -0.222,-0.382 -0.269,-0.597 m 2.746,-0.606 c -0.036,-0.162 -0.104,-0.313 -0.202,-0.449 -0.19,-0.261 -0.47,-0.433 -0.788,-0.483 -0.319,-0.05 -0.638,0.026 -0.899,0.216 -0.389,0.282 -0.574,0.769 -0.471,1.238 0.036,0.161 0.104,0.313 0.203,0.448 0.189,0.261 0.469,0.433 0.788,0.484 0.318,0.05 0.637,-0.026 0.899,-0.217 0.389,-0.281 0.574,-0.767 0.47,-1.237"
     clip-path="url(#SVGID_2_)"
     transform="translate(-363.17468,-951.48904)" /><path
     id="path214"
     d="m 584.098,956.044 c -0.137,-0.623 0.108,-1.269 0.624,-1.644 0.716,-0.52 1.721,-0.359 2.24,0.356 0.13,0.18 0.221,0.38 0.268,0.596 0.138,0.623 -0.107,1.269 -0.624,1.644 -0.716,0.52 -1.72,0.359 -2.239,-0.355 -0.131,-0.181 -0.221,-0.381 -0.269,-0.597 m 2.746,-0.606 c -0.036,-0.162 -0.104,-0.312 -0.202,-0.448 -0.392,-0.539 -1.148,-0.659 -1.687,-0.269 -0.39,0.283 -0.574,0.77 -0.47,1.238 0.035,0.162 0.103,0.313 0.202,0.449 0.391,0.539 1.148,0.658 1.686,0.268 0.39,-0.283 0.574,-0.769 0.471,-1.238"
     clip-path="url(#SVGID_2_)"
     transform="translate(-363.17468,-951.48904)" /><path
     id="path216"
     d="m 583.1,962.326 c -0.138,-0.623 0.108,-1.268 0.624,-1.643 0.347,-0.252 0.771,-0.353 1.194,-0.286 0.423,0.067 0.794,0.295 1.046,0.643 0.13,0.18 0.221,0.38 0.268,0.596 0.138,0.623 -0.107,1.268 -0.624,1.643 -0.716,0.521 -1.72,0.36 -2.24,-0.354 -0.13,-0.183 -0.222,-0.382 -0.268,-0.599 m 2.746,-0.605 c -0.036,-0.162 -0.104,-0.313 -0.202,-0.449 -0.19,-0.261 -0.47,-0.433 -0.789,-0.482 -0.318,-0.052 -0.638,0.024 -0.898,0.215 -0.39,0.281 -0.574,0.769 -0.471,1.238 0.036,0.161 0.104,0.313 0.202,0.448 0.392,0.539 1.149,0.66 1.687,0.269 0.39,-0.283 0.575,-0.77 0.471,-1.239"
     clip-path="url(#SVGID_2_)"
     transform="translate(-363.17468,-951.48904)" /><path
     id="path218"
     d="m 586.74,959.685 c -0.138,-0.623 0.108,-1.269 0.624,-1.645 0.716,-0.519 1.72,-0.358 2.24,0.357 0.131,0.18 0.221,0.38 0.268,0.596 0.138,0.623 -0.107,1.269 -0.624,1.644 -0.347,0.252 -0.771,0.354 -1.194,0.286 -0.422,-0.067 -0.794,-0.296 -1.045,-0.642 -0.131,-0.179 -0.221,-0.381 -0.269,-0.596 m 2.746,-0.607 c -0.036,-0.162 -0.104,-0.313 -0.202,-0.448 -0.391,-0.539 -1.148,-0.659 -1.687,-0.269 -0.389,0.282 -0.574,0.769 -0.47,1.237 0.035,0.163 0.103,0.313 0.202,0.45 0.189,0.261 0.469,0.433 0.788,0.483 0.318,0.05 0.637,-0.025 0.899,-0.216 0.389,-0.281 0.573,-0.766 0.47,-1.237"
     clip-path="url(#SVGID_2_)"
     transform="translate(-363.17468,-951.48904)" /><path
     id="path220"
     d="m 585.741,965.968 c -0.137,-0.624 0.108,-1.269 0.624,-1.644 0.347,-0.252 0.771,-0.353 1.194,-0.286 0.423,0.067 0.795,0.296 1.046,0.643 0.13,0.18 0.221,0.38 0.268,0.596 0.138,0.623 -0.107,1.269 -0.624,1.643 -0.716,0.521 -1.72,0.36 -2.24,-0.355 -0.13,-0.183 -0.22,-0.381 -0.268,-0.597 m 2.746,-0.607 c -0.036,-0.162 -0.104,-0.313 -0.202,-0.449 -0.19,-0.261 -0.47,-0.432 -0.788,-0.482 -0.319,-0.052 -0.638,0.025 -0.899,0.215 -0.389,0.281 -0.574,0.768 -0.47,1.237 0.035,0.163 0.103,0.313 0.202,0.449 0.391,0.539 1.147,0.659 1.687,0.269 0.389,-0.283 0.574,-0.769 0.47,-1.239"
     clip-path="url(#SVGID_2_)"
     transform="translate(-363.17468,-951.48904)" /><path
     id="path222"
     d="m 589.382,963.324 c -0.137,-0.622 0.108,-1.268 0.624,-1.642 0.716,-0.52 1.721,-0.36 2.24,0.355 0.131,0.179 0.221,0.38 0.269,0.596 0.137,0.623 -0.108,1.269 -0.625,1.644 -0.346,0.252 -0.77,0.353 -1.194,0.286 -0.422,-0.067 -0.794,-0.295 -1.045,-0.643 -0.131,-0.18 -0.221,-0.379 -0.269,-0.596 m 2.746,-0.605 c -0.036,-0.161 -0.103,-0.313 -0.202,-0.448 -0.391,-0.539 -1.148,-0.659 -1.687,-0.269 -0.389,0.282 -0.574,0.769 -0.47,1.237 0.036,0.163 0.103,0.313 0.202,0.45 0.189,0.26 0.47,0.433 0.788,0.482 0.318,0.052 0.637,-0.024 0.899,-0.215 0.389,-0.281 0.574,-0.767 0.47,-1.237"
     clip-path="url(#SVGID_2_)"
     transform="translate(-363.17468,-951.48904)" /><path
     id="path224"
     d="m 588.384,969.608 c -0.137,-0.624 0.108,-1.269 0.624,-1.644 0.716,-0.52 1.721,-0.359 2.24,0.355 0.131,0.181 0.221,0.381 0.269,0.597 0.137,0.624 -0.108,1.269 -0.625,1.644 -0.715,0.519 -1.72,0.359 -2.241,-0.356 -0.129,-0.18 -0.219,-0.38 -0.267,-0.596 m 2.746,-0.606 c -0.036,-0.162 -0.104,-0.313 -0.202,-0.449 -0.392,-0.539 -1.148,-0.659 -1.687,-0.268 -0.389,0.282 -0.574,0.769 -0.47,1.238 0.035,0.161 0.103,0.313 0.201,0.448 0.392,0.539 1.149,0.66 1.688,0.268 0.389,-0.281 0.573,-0.767 0.47,-1.237"
     clip-path="url(#SVGID_2_)"
     transform="translate(-363.17468,-951.48904)" /><path
     id="path226"
     d="m 592.024,966.966 c -0.137,-0.623 0.108,-1.269 0.624,-1.644 0.716,-0.519 1.72,-0.358 2.24,0.356 0.131,0.18 0.221,0.38 0.268,0.596 0.138,0.623 -0.107,1.269 -0.624,1.644 -0.716,0.52 -1.72,0.359 -2.239,-0.356 -0.13,-0.179 -0.221,-0.38 -0.269,-0.596 m 2.747,-0.607 c -0.036,-0.162 -0.104,-0.312 -0.202,-0.449 -0.392,-0.537 -1.148,-0.658 -1.687,-0.268 -0.39,0.282 -0.574,0.768 -0.47,1.238 0.035,0.163 0.104,0.313 0.202,0.449 0.391,0.538 1.148,0.658 1.686,0.268 0.389,-0.282 0.575,-0.767 0.471,-1.238"
     clip-path="url(#SVGID_2_)"
     transform="translate(-363.17468,-951.48904)" /><path
     id="path228"
     d="m 589.644,972.67 7.282,-5.283 c 0.07,-0.052 0.118,-0.128 0.132,-0.215 0.014,-0.087 -0.008,-0.176 -0.059,-0.245 l -10.568,-14.563 c -0.051,-0.071 -0.129,-0.119 -0.215,-0.132 -0.087,-0.014 -0.175,0.007 -0.246,0.059 l -7.281,5.283 c -0.11,0.081 -0.156,0.214 -0.129,0.339 0.01,0.043 0.028,0.085 0.056,0.122 l 10.568,14.563 c 0.106,0.146 0.313,0.179 0.46,0.072 m -0.165,-0.45 -10.413,-14.35 7.068,-5.13 10.413,14.351"
     clip-path="url(#SVGID_2_)"
     transform="translate(-363.17468,-951.48904)" /><path
     id="path230"
     d="m 580.458,958.686 c -0.137,-0.623 0.108,-1.268 0.625,-1.643 0.346,-0.252 0.77,-0.354 1.193,-0.286 0.423,0.067 0.794,0.295 1.046,0.642 0.131,0.181 0.221,0.381 0.268,0.597 0.138,0.623 -0.107,1.268 -0.624,1.643 -0.347,0.252 -0.771,0.354 -1.193,0.286 -0.424,-0.067 -0.795,-0.295 -1.046,-0.642 -0.131,-0.181 -0.222,-0.382 -0.269,-0.597 m 2.746,-0.606 c -0.036,-0.162 -0.104,-0.313 -0.202,-0.449 -0.19,-0.261 -0.47,-0.433 -0.788,-0.483 -0.319,-0.051 -0.638,0.026 -0.899,0.216 -0.389,0.282 -0.574,0.769 -0.471,1.238 0.036,0.161 0.104,0.313 0.203,0.448 0.189,0.261 0.469,0.433 0.788,0.484 0.318,0.05 0.637,-0.026 0.899,-0.217 0.389,-0.281 0.574,-0.767 0.47,-1.237"
     clip-path="url(#SVGID_2_)"
     transform="translate(-363.17468,-951.48904)" /><path
     id="path232"
     d="m 584.098,956.044 c -0.137,-0.623 0.108,-1.269 0.624,-1.644 0.716,-0.52 1.721,-0.359 2.24,0.356 0.13,0.18 0.221,0.38 0.268,0.596 0.138,0.623 -0.107,1.269 -0.624,1.644 -0.716,0.52 -1.72,0.359 -2.239,-0.355 -0.131,-0.181 -0.222,-0.381 -0.269,-0.597 m 2.746,-0.606 c -0.036,-0.162 -0.104,-0.312 -0.202,-0.448 -0.392,-0.539 -1.148,-0.659 -1.687,-0.269 -0.39,0.283 -0.574,0.77 -0.47,1.238 0.035,0.162 0.103,0.313 0.202,0.449 0.391,0.539 1.148,0.658 1.686,0.268 0.39,-0.283 0.574,-0.769 0.471,-1.238"
     clip-path="url(#SVGID_2_)"
     transform="translate(-363.17468,-951.48904)" /><path
     id="path234"
     d="m 583.1,962.326 c -0.138,-0.623 0.107,-1.268 0.624,-1.643 0.347,-0.252 0.771,-0.353 1.194,-0.286 0.423,0.067 0.794,0.295 1.046,0.643 0.13,0.18 0.221,0.38 0.268,0.596 0.138,0.623 -0.107,1.268 -0.624,1.643 -0.716,0.521 -1.72,0.36 -2.24,-0.354 -0.13,-0.183 -0.222,-0.382 -0.268,-0.599 m 2.746,-0.605 c -0.036,-0.162 -0.104,-0.313 -0.203,-0.449 -0.189,-0.261 -0.469,-0.433 -0.788,-0.482 -0.318,-0.052 -0.638,0.024 -0.898,0.215 -0.39,0.281 -0.574,0.769 -0.471,1.238 0.036,0.161 0.104,0.313 0.202,0.448 0.392,0.539 1.149,0.659 1.687,0.269 0.39,-0.283 0.575,-0.77 0.471,-1.239"
     clip-path="url(#SVGID_2_)"
     transform="translate(-363.17468,-951.48904)" /><path
     id="path236"
     d="m 586.74,959.685 c -0.138,-0.623 0.108,-1.269 0.624,-1.645 0.716,-0.519 1.72,-0.358 2.24,0.357 0.131,0.18 0.221,0.38 0.268,0.596 0.138,0.623 -0.107,1.269 -0.624,1.645 -0.347,0.251 -0.771,0.353 -1.194,0.285 -0.422,-0.067 -0.794,-0.296 -1.045,-0.642 -0.131,-0.179 -0.221,-0.381 -0.269,-0.596 m 2.746,-0.607 c -0.036,-0.162 -0.104,-0.313 -0.202,-0.448 -0.391,-0.539 -1.148,-0.659 -1.687,-0.269 -0.39,0.282 -0.574,0.769 -0.47,1.237 0.035,0.163 0.103,0.313 0.202,0.45 0.189,0.261 0.469,0.433 0.788,0.483 0.318,0.05 0.637,-0.025 0.899,-0.216 0.389,-0.281 0.573,-0.766 0.47,-1.237"
     clip-path="url(#SVGID_2_)"
     transform="translate(-363.17468,-951.48904)" /><path
     id="path238"
     d="m 585.741,965.969 c -0.137,-0.624 0.108,-1.27 0.624,-1.645 0.347,-0.252 0.771,-0.353 1.194,-0.286 0.423,0.067 0.795,0.296 1.046,0.643 0.13,0.18 0.221,0.38 0.268,0.596 0.138,0.623 -0.107,1.268 -0.624,1.643 -0.716,0.521 -1.72,0.36 -2.24,-0.355 -0.13,-0.183 -0.22,-0.381 -0.268,-0.596 m 2.746,-0.608 c -0.036,-0.162 -0.104,-0.313 -0.202,-0.449 -0.19,-0.261 -0.47,-0.432 -0.788,-0.482 -0.319,-0.052 -0.638,0.025 -0.899,0.215 -0.389,0.282 -0.574,0.768 -0.47,1.237 0.035,0.163 0.103,0.313 0.202,0.449 0.391,0.539 1.147,0.659 1.687,0.269 0.389,-0.283 0.574,-0.769 0.47,-1.239"
     clip-path="url(#SVGID_2_)"
     transform="translate(-363.17468,-951.48904)" /><path
     id="path240"
     d="m 589.382,963.324 c -0.137,-0.622 0.108,-1.268 0.624,-1.642 0.716,-0.52 1.721,-0.36 2.24,0.355 0.131,0.18 0.221,0.38 0.269,0.596 0.137,0.623 -0.108,1.269 -0.625,1.644 -0.346,0.252 -0.77,0.353 -1.194,0.286 -0.422,-0.067 -0.794,-0.295 -1.045,-0.643 -0.131,-0.18 -0.221,-0.379 -0.269,-0.596 m 2.746,-0.605 c -0.036,-0.161 -0.103,-0.313 -0.202,-0.448 -0.391,-0.539 -1.148,-0.659 -1.687,-0.269 -0.389,0.282 -0.574,0.769 -0.47,1.237 0.036,0.163 0.103,0.313 0.202,0.45 0.189,0.26 0.47,0.433 0.788,0.482 0.318,0.052 0.637,-0.024 0.899,-0.215 0.389,-0.281 0.574,-0.767 0.47,-1.237"
     clip-path="url(#SVGID_2_)"
     transform="translate(-363.17468,-951.48904)" /><path
     id="path242"
     d="m 588.384,969.608 c -0.137,-0.624 0.108,-1.269 0.624,-1.644 0.716,-0.52 1.721,-0.359 2.24,0.355 0.131,0.181 0.221,0.381 0.269,0.597 0.137,0.624 -0.108,1.269 -0.625,1.644 -0.715,0.519 -1.72,0.359 -2.241,-0.356 -0.129,-0.18 -0.219,-0.38 -0.267,-0.596 m 2.746,-0.606 c -0.036,-0.162 -0.104,-0.313 -0.202,-0.449 -0.392,-0.539 -1.148,-0.659 -1.687,-0.268 -0.389,0.282 -0.574,0.769 -0.47,1.238 0.035,0.161 0.103,0.313 0.201,0.448 0.392,0.539 1.149,0.66 1.687,0.268 0.39,-0.281 0.574,-0.767 0.471,-1.237"
     clip-path="url(#SVGID_2_)"
     transform="translate(-363.17468,-951.48904)" /><path
     id="path244"
     d="m 592.024,966.966 c -0.137,-0.623 0.108,-1.269 0.624,-1.644 0.716,-0.519 1.72,-0.358 2.24,0.356 0.131,0.18 0.221,0.38 0.268,0.596 0.138,0.623 -0.107,1.269 -0.624,1.644 -0.716,0.52 -1.72,0.359 -2.239,-0.356 -0.13,-0.179 -0.221,-0.38 -0.269,-0.596 m 2.747,-0.607 c -0.036,-0.162 -0.104,-0.312 -0.202,-0.448 -0.392,-0.538 -1.148,-0.659 -1.687,-0.269 -0.389,0.282 -0.574,0.769 -0.47,1.238 0.035,0.163 0.104,0.313 0.202,0.449 0.391,0.539 1.148,0.658 1.686,0.268 0.389,-0.282 0.575,-0.767 0.471,-1.238"
     clip-path="url(#SVGID_2_)"
     transform="translate(-363.17468,-951.48904)" /><path
     id="path246"
     d="m 634.149,964.874 c 0.067,0.057 0.153,0.085 0.241,0.078 0.087,-0.007 0.168,-0.048 0.225,-0.114 l 1.442,-1.683 c 0.088,-0.104 0.102,-0.244 0.047,-0.358 -0.02,-0.04 -0.047,-0.076 -0.083,-0.105 l -0.542,-0.477 1.179,-1.379 0.537,0.471 c 0.067,0.058 0.153,0.086 0.241,0.079 0.087,-0.007 0.168,-0.048 0.224,-0.114 l 1.443,-1.683 c 0.088,-0.103 0.102,-0.244 0.046,-0.357 -0.02,-0.04 -0.047,-0.077 -0.082,-0.106 l -0.541,-0.474 0.362,-0.424 c 0.057,-0.066 0.086,-0.152 0.079,-0.24 -0.007,-0.087 -0.048,-0.168 -0.115,-0.226 l -3.916,-3.351 c -0.103,-0.088 -0.244,-0.103 -0.359,-0.046 -0.039,0.018 -0.076,0.047 -0.106,0.082 l -11.693,13.676 c -0.119,0.138 -0.102,0.347 0.036,0.465 l 3.916,3.352 c 0.067,0.057 0.153,0.085 0.24,0.078 0.088,-0.007 0.168,-0.048 0.225,-0.114 l 0.339,-0.396 0.543,0.477 c 0.067,0.057 0.153,0.086 0.24,0.079 0.087,-0.008 0.168,-0.049 0.225,-0.115 l 1.443,-1.683 c 0.088,-0.103 0.102,-0.243 0.046,-0.357 -0.019,-0.04 -0.047,-0.076 -0.082,-0.106 l -0.547,-0.479 1.171,-1.369 0.541,0.474 c 0.067,0.058 0.153,0.085 0.241,0.078 0.087,-0.007 0.168,-0.048 0.225,-0.114 l 1.442,-1.682 c 0.088,-0.103 0.102,-0.244 0.047,-0.358 -0.02,-0.04 -0.048,-0.076 -0.083,-0.106 l -0.544,-0.478 1.168,-1.365 z m 1.16,-2.192 0.314,0.27 -0.003,0.003 10e-4,10e-4 -0.402,0.469 -0.87,1.019 -0.589,-0.503 1.275,-1.493 z m 3.362,-3.301 -0.005,0.007 10e-4,10e-4 -0.402,0.469 -0.867,1.015 -0.002,-0.002 -10e-4,10e-4 -0.025,-0.023 -0.561,-0.479 1.273,-1.491 z m -3.935,-4.533 3.723,3.187 -11.514,13.48 -3.731,-3.191 m 6.087,1.525 0.249,0.212 -0.003,0.004 0.002,10e-4 -0.402,0.468 -0.871,1.019 -0.589,-0.503 1.276,-1.493 z m 2.879,-3.695 0.409,0.349 -0.004,0.005 h 10e-4 l -0.402,0.469 -0.869,1.018 -0.589,-0.503 L 632,966 Z"
     clip-path="url(#SVGID_2_)"
     transform="translate(-363.17468,-951.48904)" /><path
     id="path248"
     d="m 676.394,957.255 c -0.016,-0.638 0.347,-1.225 0.926,-1.494 0.389,-0.181 0.824,-0.199 1.226,-0.053 0.403,0.146 0.724,0.44 0.905,0.83 0.094,0.2 0.144,0.415 0.15,0.636 0.015,0.638 -0.348,1.225 -0.927,1.494 -0.388,0.181 -0.824,0.2 -1.226,0.053 -0.403,-0.147 -0.724,-0.441 -0.904,-0.829 -0.094,-0.203 -0.145,-0.416 -0.15,-0.637 m 2.811,-0.071 c -0.004,-0.166 -0.042,-0.327 -0.113,-0.479 -0.136,-0.292 -0.378,-0.516 -0.681,-0.625 -0.303,-0.11 -0.631,-0.097 -0.924,0.041 -0.437,0.201 -0.71,0.644 -0.698,1.125 0.005,0.167 0.042,0.325 0.113,0.479 0.136,0.292 0.378,0.514 0.682,0.625 0.302,0.11 0.63,0.096 0.923,-0.04 0.436,-0.204 0.71,-0.645 0.698,-1.126"
     clip-path="url(#SVGID_2_)"
     transform="translate(-363.17468,-951.48904)" /><path
     id="path250"
     d="m 680.472,955.355 c -0.016,-0.638 0.348,-1.225 0.926,-1.493 0.802,-0.373 1.758,-0.025 2.131,0.777 0.093,0.2 0.144,0.415 0.149,0.636 0.016,0.638 -0.347,1.225 -0.926,1.493 -0.802,0.373 -1.757,0.025 -2.13,-0.775 -0.094,-0.202 -0.145,-0.416 -0.15,-0.638 m 2.811,-0.07 c -0.004,-0.166 -0.042,-0.327 -0.113,-0.479 -0.281,-0.604 -1.001,-0.867 -1.604,-0.585 -0.437,0.202 -0.71,0.645 -0.697,1.125 0.004,0.165 0.042,0.326 0.112,0.479 0.281,0.604 1.001,0.865 1.605,0.584 0.435,-0.202 0.709,-0.644 0.697,-1.124"
     clip-path="url(#SVGID_2_)"
     transform="translate(-363.17468,-951.48904)" /><path
     id="path252"
     d="m 678.293,961.333 c -0.017,-0.639 0.347,-1.226 0.926,-1.494 0.388,-0.182 0.824,-0.2 1.226,-0.053 0.403,0.146 0.724,0.441 0.905,0.829 0.093,0.202 0.144,0.416 0.149,0.637 0.016,0.638 -0.347,1.225 -0.926,1.494 -0.801,0.374 -1.757,0.024 -2.131,-0.776 -0.093,-0.202 -0.144,-0.416 -0.149,-0.637 m 2.811,-0.071 c -0.004,-0.166 -0.042,-0.327 -0.113,-0.479 -0.136,-0.292 -0.379,-0.515 -0.681,-0.625 -0.304,-0.11 -0.632,-0.097 -0.924,0.039 -0.436,0.203 -0.71,0.646 -0.698,1.127 0.004,0.165 0.042,0.327 0.113,0.479 0.281,0.603 1.001,0.866 1.605,0.585 0.436,-0.203 0.71,-0.645 0.698,-1.126"
     clip-path="url(#SVGID_2_)"
     transform="translate(-363.17468,-951.48904)" /><path
     id="path254"
     d="m 682.371,959.434 c -0.016,-0.638 0.347,-1.225 0.926,-1.494 0.802,-0.374 1.757,-0.023 2.131,0.778 0.094,0.201 0.144,0.414 0.149,0.635 0.016,0.64 -0.347,1.226 -0.926,1.494 -0.388,0.181 -0.824,0.2 -1.226,0.053 -0.402,-0.146 -0.724,-0.44 -0.904,-0.829 -0.094,-0.202 -0.146,-0.416 -0.15,-0.637 m 2.811,-0.071 c -0.004,-0.166 -0.042,-0.327 -0.113,-0.479 -0.281,-0.604 -1.001,-0.868 -1.605,-0.587 -0.436,0.203 -0.709,0.646 -0.698,1.126 0.005,0.166 0.043,0.328 0.113,0.48 0.137,0.291 0.378,0.514 0.682,0.625 0.302,0.109 0.63,0.096 0.923,-0.04 0.435,-0.202 0.709,-0.644 0.698,-1.125"
     clip-path="url(#SVGID_2_)"
     transform="translate(-363.17468,-951.48904)" /><path
     id="path256"
     d="m 680.191,965.412 c -0.016,-0.64 0.347,-1.227 0.926,-1.495 0.389,-0.182 0.824,-0.199 1.226,-0.054 0.403,0.147 0.724,0.442 0.905,0.83 0.094,0.201 0.144,0.415 0.149,0.637 0.017,0.638 -0.347,1.225 -0.926,1.493 -0.802,0.374 -1.757,0.025 -2.13,-0.775 -0.093,-0.202 -0.144,-0.416 -0.15,-0.636 m 2.811,-0.072 c -0.004,-0.166 -0.042,-0.327 -0.113,-0.479 -0.136,-0.292 -0.378,-0.514 -0.681,-0.625 -0.303,-0.11 -0.631,-0.096 -0.924,0.04 -0.436,0.203 -0.709,0.645 -0.698,1.125 0.005,0.167 0.042,0.327 0.113,0.48 0.282,0.603 1.001,0.866 1.605,0.585 0.436,-0.203 0.71,-0.647 0.698,-1.126"
     clip-path="url(#SVGID_2_)"
     transform="translate(-363.17468,-951.48904)" /><path
     id="path258"
     d="m 684.269,963.512 c -0.016,-0.638 0.348,-1.225 0.926,-1.494 0.802,-0.373 1.758,-0.024 2.131,0.776 0.094,0.202 0.144,0.416 0.15,0.637 0.016,0.64 -0.348,1.226 -0.927,1.494 -0.388,0.181 -0.823,0.2 -1.226,0.053 -0.402,-0.146 -0.723,-0.44 -0.904,-0.829 -0.094,-0.202 -0.144,-0.417 -0.15,-0.637 m 2.811,-0.072 c -0.004,-0.166 -0.042,-0.326 -0.112,-0.479 -0.282,-0.604 -1.002,-0.865 -1.604,-0.584 -0.436,0.203 -0.71,0.644 -0.698,1.125 0.004,0.166 0.042,0.328 0.113,0.479 0.136,0.293 0.378,0.516 0.681,0.625 0.303,0.111 0.631,0.098 0.923,-0.039 0.435,-0.203 0.709,-0.645 0.697,-1.127"
     clip-path="url(#SVGID_2_)"
     transform="translate(-363.17468,-951.48904)" /><path
     id="path260"
     d="m 682.09,969.488 c -0.016,-0.638 0.347,-1.224 0.926,-1.494 0.802,-0.373 1.757,-0.023 2.131,0.777 0.094,0.201 0.144,0.417 0.15,0.636 0.015,0.639 -0.348,1.226 -0.927,1.495 -0.801,0.372 -1.757,0.024 -2.13,-0.778 -0.094,-0.2 -0.144,-0.415 -0.15,-0.636 m 2.811,-0.071 c -0.004,-0.166 -0.042,-0.327 -0.113,-0.479 -0.281,-0.604 -1.001,-0.866 -1.605,-0.585 -0.436,0.203 -0.71,0.645 -0.698,1.125 0.005,0.166 0.042,0.328 0.113,0.479 0.281,0.604 1.001,0.866 1.604,0.585 0.438,-0.202 0.712,-0.644 0.699,-1.125"
     clip-path="url(#SVGID_2_)"
     transform="translate(-363.17468,-951.48904)" /><path
     id="path262"
     d="m 686.168,967.59 c -0.016,-0.639 0.348,-1.226 0.926,-1.494 0.802,-0.373 1.757,-0.025 2.131,0.777 0.094,0.2 0.144,0.415 0.15,0.636 0.016,0.638 -0.348,1.225 -0.927,1.494 -0.802,0.373 -1.757,0.024 -2.13,-0.776 -0.093,-0.203 -0.144,-0.416 -0.15,-0.637 m 2.811,-0.071 c -0.004,-0.166 -0.042,-0.327 -0.113,-0.479 -0.281,-0.604 -1.001,-0.866 -1.604,-0.585 -0.437,0.202 -0.709,0.645 -0.697,1.126 0.004,0.166 0.042,0.326 0.113,0.479 0.281,0.604 1,0.866 1.604,0.584 0.435,-0.203 0.709,-0.644 0.697,-1.125"
     clip-path="url(#SVGID_2_)"
     transform="translate(-363.17468,-951.48904)" /><path
     id="path264"
     d="m 682.743,972.736 8.156,-3.798 c 0.079,-0.037 0.141,-0.104 0.171,-0.187 0.03,-0.082 0.026,-0.173 -0.011,-0.252 l -7.595,-16.312 c -0.037,-0.079 -0.104,-0.142 -0.187,-0.171 -0.082,-0.03 -0.172,-0.027 -0.252,0.011 l -8.155,3.798 c -0.123,0.057 -0.194,0.18 -0.191,0.307 10e-4,0.044 0.011,0.089 0.031,0.131 l 7.595,16.311 c 0.077,0.166 0.273,0.239 0.438,0.162 m -0.075,-0.475 -7.484,-16.071 7.917,-3.688 7.483,16.072 z"
     clip-path="url(#SVGID_2_)"
     transform="translate(-363.17468,-951.48904)" /><path
     id="path266"
     d="m 676.394,957.255 c -0.016,-0.638 0.347,-1.225 0.926,-1.494 0.389,-0.181 0.824,-0.199 1.226,-0.053 0.403,0.146 0.724,0.441 0.905,0.83 0.094,0.2 0.144,0.415 0.15,0.636 0.015,0.638 -0.348,1.225 -0.927,1.494 -0.388,0.181 -0.824,0.2 -1.226,0.053 -0.403,-0.147 -0.724,-0.441 -0.904,-0.829 -0.094,-0.203 -0.145,-0.416 -0.15,-0.637 m 2.811,-0.071 c -0.004,-0.166 -0.042,-0.327 -0.113,-0.479 -0.136,-0.292 -0.378,-0.516 -0.681,-0.625 -0.303,-0.11 -0.631,-0.097 -0.924,0.041 -0.437,0.201 -0.71,0.644 -0.698,1.125 0.005,0.167 0.042,0.325 0.113,0.478 0.136,0.293 0.378,0.515 0.682,0.626 0.302,0.11 0.63,0.096 0.923,-0.04 0.436,-0.204 0.71,-0.645 0.698,-1.126"
     clip-path="url(#SVGID_2_)"
     transform="translate(-363.17468,-951.48904)" /><path
     id="path268"
     d="m 680.472,955.356 c -0.016,-0.639 0.348,-1.226 0.926,-1.494 0.802,-0.373 1.758,-0.025 2.131,0.777 0.093,0.2 0.144,0.415 0.15,0.636 0.015,0.638 -0.348,1.225 -0.927,1.493 -0.802,0.373 -1.757,0.025 -2.13,-0.775 -0.094,-0.202 -0.145,-0.416 -0.15,-0.637 m 2.811,-0.071 c -0.004,-0.166 -0.042,-0.327 -0.113,-0.479 -0.281,-0.604 -1.001,-0.866 -1.605,-0.585 -0.436,0.202 -0.71,0.645 -0.697,1.125 0.004,0.165 0.042,0.326 0.112,0.479 0.281,0.604 1.001,0.865 1.605,0.584 0.436,-0.202 0.71,-0.644 0.698,-1.124"
     clip-path="url(#SVGID_2_)"
     transform="translate(-363.17468,-951.48904)" /><path
     id="path270"
     d="m 678.293,961.333 c -0.017,-0.638 0.347,-1.226 0.926,-1.494 0.388,-0.182 0.824,-0.2 1.226,-0.053 0.403,0.146 0.724,0.441 0.905,0.829 0.093,0.202 0.144,0.417 0.15,0.637 0.015,0.638 -0.348,1.225 -0.927,1.494 -0.802,0.374 -1.757,0.024 -2.131,-0.776 -0.093,-0.202 -0.144,-0.416 -0.149,-0.637 m 2.811,-0.071 c -0.004,-0.166 -0.042,-0.327 -0.113,-0.479 -0.136,-0.292 -0.378,-0.515 -0.682,-0.625 -0.303,-0.11 -0.631,-0.097 -0.923,0.04 -0.436,0.202 -0.71,0.646 -0.698,1.126 0.004,0.166 0.042,0.327 0.113,0.479 0.281,0.604 1.001,0.866 1.605,0.585 0.436,-0.203 0.71,-0.645 0.698,-1.126"
     clip-path="url(#SVGID_2_)"
     transform="translate(-363.17468,-951.48904)" /><path
     id="path272"
     d="m 682.371,959.434 c -0.016,-0.638 0.347,-1.225 0.926,-1.494 0.802,-0.374 1.757,-0.023 2.131,0.778 0.094,0.201 0.144,0.414 0.15,0.635 0.015,0.639 -0.348,1.226 -0.927,1.494 -0.388,0.181 -0.824,0.2 -1.226,0.053 -0.402,-0.146 -0.724,-0.44 -0.904,-0.829 -0.094,-0.202 -0.146,-0.416 -0.15,-0.637 m 2.811,-0.071 c -0.004,-0.166 -0.042,-0.327 -0.113,-0.479 -0.281,-0.604 -1.001,-0.868 -1.605,-0.587 -0.436,0.203 -0.709,0.646 -0.698,1.126 0.005,0.166 0.043,0.328 0.113,0.48 0.137,0.291 0.378,0.514 0.682,0.625 0.303,0.109 0.631,0.096 0.923,-0.041 0.435,-0.201 0.709,-0.643 0.698,-1.124"
     clip-path="url(#SVGID_2_)"
     transform="translate(-363.17468,-951.48904)" /><path
     id="path274"
     d="m 680.191,965.412 c -0.016,-0.64 0.347,-1.227 0.926,-1.495 0.389,-0.182 0.824,-0.2 1.226,-0.054 0.403,0.147 0.724,0.442 0.905,0.83 0.094,0.201 0.144,0.415 0.149,0.637 0.017,0.638 -0.347,1.225 -0.926,1.493 -0.802,0.372 -1.757,0.025 -2.13,-0.775 -0.093,-0.202 -0.144,-0.416 -0.15,-0.636 m 2.811,-0.072 c -0.004,-0.166 -0.042,-0.327 -0.113,-0.479 -0.136,-0.292 -0.378,-0.514 -0.681,-0.625 -0.303,-0.11 -0.631,-0.096 -0.924,0.04 -0.436,0.203 -0.709,0.645 -0.698,1.126 0.005,0.166 0.042,0.326 0.113,0.479 0.282,0.604 1.001,0.867 1.605,0.586 0.436,-0.204 0.71,-0.648 0.698,-1.127"
     clip-path="url(#SVGID_2_)"
     transform="translate(-363.17468,-951.48904)" /><path
     id="path276"
     d="m 684.269,963.512 c -0.016,-0.638 0.348,-1.225 0.926,-1.494 0.802,-0.373 1.758,-0.024 2.131,0.776 0.094,0.202 0.144,0.416 0.15,0.637 0.016,0.638 -0.348,1.226 -0.927,1.494 -0.388,0.181 -0.824,0.2 -1.226,0.053 -0.402,-0.146 -0.723,-0.44 -0.904,-0.829 -0.094,-0.202 -0.144,-0.417 -0.15,-0.637 m 2.811,-0.072 c -0.004,-0.166 -0.042,-0.326 -0.112,-0.479 -0.282,-0.604 -1.002,-0.865 -1.604,-0.584 -0.436,0.203 -0.71,0.644 -0.698,1.125 0.004,0.166 0.042,0.328 0.113,0.479 0.136,0.293 0.378,0.516 0.681,0.625 0.303,0.111 0.63,0.098 0.923,-0.039 0.435,-0.203 0.709,-0.645 0.697,-1.127"
     clip-path="url(#SVGID_2_)"
     transform="translate(-363.17468,-951.48904)" /><path
     id="path278"
     d="m 682.09,969.488 c -0.016,-0.638 0.347,-1.224 0.926,-1.494 0.802,-0.373 1.757,-0.023 2.131,0.777 0.094,0.201 0.144,0.417 0.15,0.636 0.015,0.64 -0.348,1.226 -0.927,1.495 -0.801,0.372 -1.757,0.024 -2.13,-0.777 -0.094,-0.2 -0.144,-0.416 -0.15,-0.637 m 2.811,-0.071 c -0.004,-0.166 -0.042,-0.326 -0.113,-0.479 -0.281,-0.604 -1.001,-0.866 -1.605,-0.585 -0.436,0.203 -0.71,0.645 -0.697,1.125 0.004,0.166 0.042,0.328 0.112,0.479 0.281,0.604 1.001,0.866 1.604,0.585 0.438,-0.201 0.712,-0.644 0.699,-1.125"
     clip-path="url(#SVGID_2_)"
     transform="translate(-363.17468,-951.48904)" /><path
     id="path280"
     d="m 686.168,967.59 c -0.016,-0.639 0.348,-1.226 0.926,-1.494 0.802,-0.373 1.757,-0.025 2.131,0.777 0.094,0.2 0.144,0.415 0.149,0.636 0.017,0.638 -0.347,1.225 -0.926,1.494 -0.802,0.373 -1.757,0.024 -2.13,-0.776 -0.093,-0.203 -0.144,-0.416 -0.15,-0.637 m 2.811,-0.071 c -0.004,-0.166 -0.042,-0.327 -0.113,-0.479 -0.281,-0.604 -1.001,-0.866 -1.604,-0.585 -0.437,0.202 -0.709,0.645 -0.697,1.126 0.004,0.166 0.042,0.326 0.113,0.479 0.281,0.604 1,0.866 1.604,0.584 0.435,-0.203 0.709,-0.644 0.697,-1.125"
     clip-path="url(#SVGID_2_)"
     transform="translate(-363.17468,-951.48904)" /></svg>