<?xml version="1.0" encoding="utf-8"?>
<!-- Svg Vector Icons : http://www.onlinewebfonts.com/icon -->
<!DOCTYPE svg PUBLIC "-//W3C//DTD SVG 1.1//EN" "http://www.w3.org/Graphics/SVG/1.1/DTD/svg11.dtd">
<svg version="1.1" xmlns="http://www.w3.org/2000/svg" xmlns:xlink="http://www.w3.org/1999/xlink" x="0px" y="0px" viewBox="0 0 1000 1000" enable-background="new 0 0 1000 1000" xml:space="preserve">
<metadata> Svg Vector Icons : http://www.onlinewebfonts.com/icon </metadata>
<g><g><g id="Search"><g><path d="M963,832.9L800.6,670.5c42.8-66.8,68.4-145.8,68.4-231C869,202.3,676.7,10,439.5,10C202.3,10,10,202.3,10,439.5C10,676.7,202.3,869,439.5,869c85.2,0,164.2-25.6,230.9-68.4l162.4,162.5c36,36,94.2,36,130.1,0C999,927.1,999,868.8,963,832.9z M439.5,746.2c-169.4,0-306.8-137.4-306.8-306.8c0-169.4,137.4-306.8,306.8-306.8c169.4,0,306.8,137.4,306.8,306.8C746.3,608.9,608.9,746.2,439.5,746.2z"/></g></g></g><g></g><g></g><g></g><g></g><g></g><g></g><g></g><g></g><g></g><g></g><g></g><g></g><g></g><g></g><g></g></g>
</svg>